<?xml version="1.0" encoding="UTF-8"?><svg id="a" xmlns="http://www.w3.org/2000/svg" viewBox="0 0 1134.24 787.68"><path d="M597.83,0c.32,0,.64,0,.96,0,.92.18,1.84.41,2.78.52,2.78.33,5.64.29,8.32.97,6.5,1.65,12.92,3.67,18.98,6.58,2.74,1.32,5.47,1.93,8.49,2.06,6.94.31,13.87.87,20.81,1.33,7.65.51,15.3,1.06,22.96,1.47,1.39.07,2.88-.22,4.19-.7,5.6-2.05,11.47-2.29,17.25-2.11,6.05.19,12.07,1.25,18.1,1.98.7.08,1.38.37,2.04.65,7.99,3.46,15.95,6.98,23.97,10.38,1.63.69,2.52,1.66,2.98,3.37.45,1.66,1.14,3.32,2,4.81,1.65,2.83,4.1,4.6,7.48,4.9.47.04.92.27,1.39.35,1.18.2,1.66.88,1.95,2.05,1.17,4.73,2.46,9.43,3.77,14.12.3,1.06.79,2.09,1.32,3.06,5.03,9.12,10.78,17.75,17.84,25.46.22.24.38.52.62.73,1,.9,1.93,1.91,3.04,2.66,3.65,2.45,7.38,4.77,11.03,7.22.83.56,1.64,1.3,2.16,2.14,2.5,4,4.76,8.12,5.97,12.75.44,1.7,1.16,3.32,1.62,5.01.33,1.22.62,2.49.62,3.75.04,15.11.04,30.22,0,45.33,0,1.18-.25,2.37-.49,3.54-1.25,6.1-3.67,11.7-7.19,16.84-1.12,1.65-2.04,3.43-3.08,5.14-.37.61-.73,1.27-1.23,1.76-3.83,3.74-7.58,7.57-11.58,11.12-3.95,3.51-3.82,3.41-4.5,8.76-.42,3.29,1.29,5.07,3.38,6.81,1.02.85,2.3,1.4,3.51,2.11.92-.49,1.75-.95,2.6-1.37,1.02-.51,2.02-1.04,2.37-2.23,1-3.48,3.46-5.13,6.89-5.65,1.66-.25,2.95-1.08,3.54-2.75,1.56,0,3-.07,4.43.02,2.06.12,3.77-.85,5.32-1.89.77-.51.93-1.91,1.38-2.91.13-.29.29-.56.51-1.01,2.11,0,4.25-.03,6.4.01.95.02,1.79-.12,2.17-1.1.78-2.01,2.38-2.36,4.27-2.24.48.03.97.03,1.44-.05,1.46-.23,2.63.14,3.61,1.33.41.5,1.15,1,1.75,1.02,2.25.05,3.42-1.06,3.77-3.28.04-.23.15-.44.23-.67,3.36-1.22,6.69-2.4,10.06.42.44-1.34.78-2.37,1.16-3.52,1.41.3,2.74.54,4.04.87.52.13,1.19.32,1.44.7.93,1.42,2.15,1.41,3.56,1.04,1.08-.28,2.19-.45,3.28-.7.21-.05.4-.22.56-.31.16-.74.3-1.41.45-2.14,1.55-.19,3.07-.75,4.38-.44,1.27.3,2.34,1.48,3.7,2.42,1.83-2.94,4.46-2.22,7.07-1.6.08.02.16.03.23.05,3.16,1,6.4,1.31,9.7,1.16,1.6-.07,3.2,0,4.8-.02,5.24-.07,10.37.78,15.37,2.16,14.8,4.06,29.27,9.07,43.23,15.53,5.97,2.76,11.74,5.74,17.05,9.65,3.73,2.74,7.56,5.38,11.46,7.87,4.35,2.78,8.15,6.11,11.55,9.99,9,10.29,18.19,20.41,27.14,30.75,4.29,4.95,8.6,9.97,12.17,15.43,3.57,5.46,6.25,11.5,9.29,17.31,2.11,4.03,4.37,8.01,6.21,12.16,4.81,10.88,9.65,21.75,13.7,32.96,1.93,5.35,3.86,10.63,4.67,16.28.14.95.87,1.81,1.31,2.72.36.76.85,1.5,1.02,2.31.69,3.39.82,6.84.2,10.24-.39,2.11-.16,3.72,1.76,4.95.55.35,1.02,1.06,1.19,1.7.43,1.6.66,3.26.98,4.95-1.98.98-1.96,2.61-1.72,4.36.17,1.19.27,2.38.34,3.58.22,3.82.01,3.45,3.64,3.72.22.02.42.18.83.36-.72,4.61-1.44,9.24-2.14,13.76.87.81,2.24.72,2.27,2.16.03,1.73.17,3.45.26,5.21-1.27.27-2.25.48-3.22.68.6,4.98.62,5.02,3.69,6.89-.11,1.64-.22,3.37-.34,5.08-.9.36-1.63.66-2.34.94v8.66c.97.2,1.79.36,2.79.56.07,3.26.15,6.41-.03,9.45-1.33.35-2.32.62-3.56.94.18,3.53.36,7.02.55,10.54.79.3,1.43.55,2.12.82.12,2.56.39,4.98-2.17,6.67-.67.44-.99,1.56-1.24,2.44-.28.99-.25,2.06-.44,3.08-.36,1.86-.79,3.7-1.22,5.69,1.49.37,2.91.72,4.54,1.12-.89,2.33-1.66,4.42-2.47,6.5-.61,1.56-1.19,3.17-3.35,3.2-.17,2.27-.34,4.39-.49,6.43q2.75.99,2.48,3.58c-.06.56-.13,1.12-.11,1.67.04,1.06-.34,1.87-1.26,2.4-.99.58-1.39,1.51-1.56,2.57-.48,2.89-.93,5.79-1.41,8.74-.58.54-1.64,1.06-1.88,1.84-.74,2.32-1.16,4.75-1.7,7.12,1.09.4,1.89.69,2.55.93,1.06,3.26-.29,5.99-1.33,8.73-.19.49-.84.96-1.38,1.13-4.01,1.28-2.94.55-4,4.7-.14.54-.25,1.09-.35,1.64-.46,2.75.23,4.24,2.58,5.74.38.24.71.57,1.08.87-.33,1.02-.46,2.02-.93,2.82-1.31,2.24-2.4,4.7-5.27,5.54-.55.16-1.16.88-1.34,1.46-.74,2.43-1.32,4.91-1.97,7.4.81.58,1.51,1.09,2.18,1.57.16,2.88.05,3.03-1.34,6.51-.65,1.64-1.5,2.78-3.37,2.79-2.4.02-3.63,1.26-3.94,3.56-.03.23-.16.45-.25.67-.33.84-.08,1.48.51,2.16,1.73,2,1.72,4.07.23,6.23-.78,1.14-1.6,1.89-3.33,1.02-.08,1.35-.29,2.36-.17,3.34.32,2.66-1.75,5.88-4.38,6.54-.76.19-1.54.3-2.31.45-.64,1.9-.75,3.73-.06,5.48,1.04,2.63.81,5.2-.29,7.66-.67,1.51-1.83,2.79-2.65,4.24-.82,1.45-2.02,2.24-3.61,2.39-1.28.12-2.09.77-2.47,1.93-.31.96-.64,1.96-.72,2.96-.12,1.59,0,3.19-.04,4.79-.04,1.96-1.25,3.46-2.32,4.89-.49.66-1.86.63-2.8,1.01-.62.26-1.44.55-1.72,1.06-1.64,3.06-2.87,6.24-2.11,9.84.1.45.25,1.07.04,1.37-1.91,2.68-3,6.45-7.49,5.85-.29-.04-.6.12-1.04.22-.94,3.53-1.88,7.06-2.84,10.71-2.43-.09-3.31,1.28-3.82,3.4-.49,2.08-1.78,3.71-4.05,4.31-1.08.29-2.12.72-3.15,1.16-3.26,1.38-3.03.44-3.26,4.34-.04.71-.12,1.43-.29,2.13q-.86,3.59-4.4,4.72c-3.41,1.09-6.82,2.17-10.25,3.26,0,.88-.12,1.61.02,2.29.32,1.55-.31,2.54-1.5,3.46-1.45,1.12-2.69,2.52-4.17,3.61-2.44,1.79-3.97,3.97-4.23,7.1-.19,2.35-1.67,3.83-3.98,4.55-2.74.85-5.56,1.59-8.12,2.84-6.1,2.98-12.07,6.22-18.09,9.37-.44.23-.8.61-1.48,1.13,2.05.28,3.71.5,5.36.73,12.58,1.75,25.16,3.52,37.74,5.22,1.06.14,2.23.03,3.25-.3,4.56-1.47,9.1-3,13.6-4.64,1.8-.66,3.43-.73,5.3-.16,6.19,1.87,12.37,3.85,18.68,5.21,7.96,1.72,16.01,3.03,24.06,4.22,12.48,1.84,25,3.45,37.51,5.13,14.89,1.99,29.78,3.95,44.66,5.93,2.43.32,4.86.71,7.22,1.05.54,3.07.39,35.27-.15,36.99H1.34v-130.77c2.91-.31,5.76-.62,8.61-.9,7.32-.71,14.63-1.42,21.96-2.09,8.35-.77,16.71-1.53,25.07-2.22,1.29-.11,2.17-.51,3.03-1.52,1.25-1.46,1.37-2.94.82-4.74-.95-.16-1.89-.29-2.82-.5-.52-.12-1.17-.23-1.48-.59-.73-.85-1.65-.93-2.61-.92-1.68.02-3.36.02-5.02.18-3.82.36-7.63.82-11.44,1.23-8.66.92-17.32,1.83-25.99,2.74-3.41.36-6.82.68-10.23,1.02-.11-.32-.26-.54-.26-.76.06-39.26.13-78.51.21-117.77,0-.71.1-1.43.16-2.14,0-.07.06-.15.11-.21.05-.05.13-.08.33-.2,2.09.18,4.31.36,6.53.56,7.88.74,15.75,1.49,23.63,2.23,7.48.7,14.96,1.38,22.44,2.08,7.96.74,15.91,1.49,23.87,2.24,4.22.4,8.43.82,12.65,1.2,1.11.1,1.93.53,2.65,1.38,1.76,2.07,3.48,4.2,5.42,6.09,5.29,5.17,9.25,11.15,11.6,18.18.48,1.43,1.45,2.38,2.63,3.28,6.16,4.7,12.24,9.52,18.43,14.19,1.88,1.42,3.25,3.04,3.65,5.37.36,2.07,1.65,2.94,3.59,3.59,13.63,4.56,27.22,9.24,40.81,13.92,1.19.41,2.37,1,3.37,1.74,5.32,3.96,10.59,7.99,15.87,12.01.63.48,1.25,1.01,1.78,1.6,2.43,2.69,5.15,5,8.41,6.65,2.18,1.1,3.76,2.64,4,5.23.04.45.32.88.54,1.48,2.19.32,4.38.81,6.6.94,4.55.26,8.21,2.47,11.57,5.2,2.78,2.26,5.32,4.82,7.96,7.26,1.04.97,1.71,3.53,1.03,4.34-.93,1.09-1.9,2.19-3.03,3.05-2.33,1.76-2.39,1.69-1.73,4.34.13.53.36,1.03.54,1.51,1.26.24,2.42.47,3.65.71-.02,3.13,2.88,1.98,4.35,3.2.14.89.53,1.94.41,2.93-.21,1.72-.49,3.51-1.22,5.05-.39.83-1.74,1.24-2.69,1.78-1.23.69-2.5,1.32-3.64,1.92.12,2,.92,3.1,2.71,3.38.55.08,1.08.28,1.6.48,1.8.7,3.25,1.7,3.46,3.85.04.44.35.86.54,1.3.55.04,1.02.09,1.5.11,10.63.29,21.26.59,31.89.82,1.51.03,2.76.44,4,1.28,3.84,2.58,7.63,5.1,10.57,8.88,2.07,2.66,4.94,4.82,8.8,4.24,1.66-1.8,1.88-4.04,2.24-6.25.16-.99.41-2.07.95-2.89,1.01-1.51,2.26-2.86,3.47-4.35,2.36.62,4.73,1.33,7.41.55-.85-4.23-1.57-8.38-2.53-12.49-2.21-9.45-3.14-18.97-3.29-28.7-.24-15.92-.09-31.81,1.26-47.67.33-3.81.59-7.65,1.27-11.41,1.16-6.44,2.58-12.84,3.96-19.24,2.07-9.59,3.91-19.22,7.09-28.57,5.53-16.23,12.21-31.86,20.85-46.73,5.01-8.63,10.97-16.45,17.05-24.28,5.57-7.18,11.67-13.75,18.79-19.39,3.26-2.58,6.31-5.41,9.62-7.92,3.82-2.9,7.59-5.98,11.8-8.21,4.27-2.27,9-3.69,13.59-5.31,2.31-.82,4.74-1.34,7.14-1.89,2.02-.45,4.07-.74,6.28-1.13.18-.97.42-1.88.5-2.81.25-2.9,1.02-5.66,2.15-8.31.66-1.54,1.53-2.99,2.2-4.53.34-.78.65-1.67.6-2.49-.4-6.54-.83-13.08-1.38-19.61-.59-7.02-.94-14.04-.44-21.07.36-5.12.94-10.21,4.14-14.52,2.24-3.02,4.69-5.84,7.93-7.86,4.73-2.94,10.03-4.51,15.18-6.47,4.36-1.66,8.93-2.43,13.54-2.92,2.58-.28,5.17-.36,7.76-.54.05-.15.1-.3.15-.45-.72-.43-1.43-.87-2.15-1.29-5.26-3.02-10.61-5.89-15.55-9.47-8.22-5.95-16.54-11.78-24.92-17.5-6.02-4.11-11.82-8.47-17.21-13.37-3.43-3.12-7-6.08-10.3-9.33-7.52-7.4-14.89-14.95-22.36-22.4-.64-.64-1.5-1.25-2.35-1.45-2.08-.5-4.12.14-6.12.7-.34.1-.77.4-.89.71-.67,1.69-1.48,3.37-1.84,5.14-.83,4.06-1.37,8.17-2.14,12.24-.36,1.91-1.85,2.75-3.87,2.51-2.06-.25-4.13-.49-6.2-.68-1.39-.13-2.62-.52-3.77-1.35-2.14-1.55-4.37-2.95-6.5-4.51-.89-.65-1.7-1.45-2.37-2.32-4.05-5.26-7.95-10.61-10.52-16.81-.8-1.94-.94-1.89-3.42-1.67-.28.61-.64,1.24-.87,1.91-.3.86-.89,1.18-1.73,1.42-4.06,1.18-8.2-1.73-8.38-5.93-.06-1.27-.28-2.54-.33-3.82-.06-1.49-.01-2.98-.01-4.57,1.21-.1,2.25-.09,3.25-.28,2.57-.49,4.65-1.93,5.64-4.29.79-1.88,1.83-3.29,3.59-4.24.41-.22.73-.59,1.04-.85-.45-4.11-.02-3.04-3.12-4.75-1.12-.61-2.34-1.07-3.4-1.77-1.11-.73-2.22-1.55-3.1-2.53-3.04-3.39-5.95-6.89-8.97-10.31-.62-.7-.95-1.4-.97-2.34-.14-5.33.55-10.47,3-15.32.95-1.87,2.14-3.21,3.98-4.22,8.43-4.6,16.54-9.74,24.06-15.71,3.84-3.04,8.01-5.32,12.58-6.75,3.82-1.2,6.76-3.23,9.32-6.26,5.1-6.05,10.78-11.57,15.6-17.88,5.77-7.56,11.44-15.18,17.7-22.37,9.04-10.39,18.5-20.34,28.98-29.29,1.87-1.6,3.82-3.17,5.91-4.45,2.12-1.29,3.85-2.79,4.87-5.07.43-.97,1.1-1.68,2.15-2.11,5.76-2.35,11.41-5,17.54-6.36,1.12-.25,2.22-.89,3.16-1.59,2.95-2.2,5.92-4.38,8.68-6.8,4.94-4.32,10.41-7.64,16.68-9.59,2-.62,3.45-1.83,4.75-3.43,1.71-2.11,3.44-4.24,5.45-6.04,2.62-2.33,5.56-4.31,8.32-6.49,2.22-1.75,4.58-3.2,7.33-3.92,1.12-.29,2.04-.85,2.65-1.9,2.72-4.68,6.71-8.05,11.27-10.84,1.16-.71,2.19-1.62,3.36-2.3,1.85-1.08,3.73-2.12,5.67-3.04,3.75-1.77,7.57-3.38,11.3-5.2,1.48-.72,2.94-1.09,4.57-1.19,3.66-.23,7.34-.48,10.97-1.01,4.73-.68,9.47-1.42,13.79-3.76,1.02-.55,2.28-.69,3.44-.95,2.94-.68,5.89-1.32,8.84-1.98ZM565.86,123.51c.88-3.13,2.84-4.79,6.24-4.68,1.09.04,2.23-.2,3.29-.5,1.6-.46,3.14-1.13,4.73-1.65,1.87-.62,2.46-1.37,2.44-3.29-.02-1.7-1.06-3.01-2.91-3.59-.9-.28-1.83-.5-2.83-.77-.27-1.21-.54-2.37-.78-3.54-.5-2.43-1.81-4.06-4.4-4.35-2.37-.27-4.75-.51-7.13-.66-1.52-.09-2.66-.6-3.72-1.77-2.24-2.45-5.06-3.87-8.46-3.8-2.32.05-4.63.15-6.94.32-2.08.15-3.04-.44-3.78-2.41-.89-2.39-.75-4.84.41-6.97,1.77-3.26.32-5.84-1.2-8.49-.19-.34-.75-.62-1.16-.66-1.83-.16-3.68-.44-5.49-.26-1.83.18-3.52,1.06-4.68,2.61-1.82,2.44-4.07,4.22-7.02,5.12-.83.25-1.64.65-2.38,1.12-4.54,2.84-9.04,5.74-13.59,8.56-1,.62-2.12,1.21-3.25,1.41-3.93.68-7.46,2.24-10.79,4.39-1.41.91-2.89,1.71-4.34,2.55-4.08,2.38-8.01,4.94-11.35,8.35-2.12,2.17-4.63,3.86-7.23,5.48-1.83,1.14-3.29,2.96-4.73,4.63-.87,1.01-1.46,2.29-2.07,3.5-.81,1.61-1.99,2.82-3.44,3.9-4.55,3.39-9.12,6.77-13.5,10.37-3.51,2.9-7.35,5.03-11.63,6.49-1,.34-2.07,1-2.69,1.83-1.56,2.11-2.92,4.37-4.28,6.62-.6.99-1.26,1.77-2.45,2.11-3.49,1.01-6.56,2.86-9.53,4.91-1.31.91-2.7,1.71-4.13,2.41-2.68,1.31-4.98,3.1-7.27,4.99-3.71,3.05-6.65,6.62-8.89,10.84-1.47,2.77-2.72,5.6-3.09,8.75-.29,2.49-.94,4.94-2.44,6.93-1.9,2.51-2.67,5.28-2.5,8.3.26,4.68-.62,9.23-1.34,13.8-.39,2.49-1.27,4.79-3.87,5.92-.35.15-.64.48-.93.75-1.37,1.28-1.47,2.69-.27,4.17.35.43.77.82,1.19,1.18,1.92,1.62,3.51,3.5,4.45,5.85.54,1.36,1.49,1.87,2.91,1.99,2.14.17,4.27.53,6.17,2.01,0,1.15.06,2.35-.01,3.54-.1,1.57.47,2.66,1.74,3.65,4.16,3.25,8.19,6.66,12.32,9.94,1.43,1.14,2.93,2.23,4.52,3.14,2.87,1.64,5.41,3.64,7.83,5.88,2.71,2.51,5.9,4.35,9.33,5.73,2.96,1.2,6.11,2.03,8.86,3.58,6.66,3.74,13.75,6.36,20.99,8.67,1.38.44,2.62.2,3.97-.03,1.34-.23,1.18-1.58,2.01-2.19,1.96.8,3.86,1.63,5.79,2.36,2.3.87,4.31,2.07,5.57,4.28.49.86,1.15,1.55,2.29,1.42.98-.12,1.65.38,2.25,1.1,2.2,2.65,5.22,3.94,8.43,4.7,3.31.79,6.64.92,9.74-.96.4-.24.88-.48,1.33-.51,1.88-.15,4.02-.82,5.61-.18,3,1.22,5.68,3.22,8.5,4.88.69.41.91.94.96,1.76.09,1.64-.91,2.16-2.17,2.67-3.06,1.24-3.74,2.83-2.67,6.14,2.55.8,5.22.79,8.1.67.05-.99.1-1.85.13-2.71.19-4.39.34-8.79.61-13.17.06-.97.24-2.27.88-2.8.99-.82,1.06-1.7,1.08-2.73.08-3.68.21-7.35.17-11.03-.01-1.43.48-2.6,1.49-3.36.75-.57,1.88-.63,2.99-.97.12-.6.29-1.29.38-2,.38-3.17.64-6.36,1.15-9.52.3-1.82.09-3.42-.65-5.09-1.88-4.27-1.82-8.74-.66-13.12,1.06-4.02,2.2-7.99,2.75-12.13.16-1.2.74-2.43,1.4-3.48,1.19-1.89,2.67-3.6,3.86-5.49,1.33-2.11,2.99-3.68,5.38-4.49.74-.25,1.4-.71,2.15-1.09-.12-4.84-.17-9.55-.39-14.26-.15-3.11.96-5.78,2.53-8.32.75-1.22,1.65-2.36,2.45-3.55.35-.53.8-1.08.9-1.67.69-4.18,2.58-7.84,4.76-11.4.46-.74.78-1.58,1.09-2.4.82-2.2,2.01-4.16,3.69-5.82,2.62-2.59,4.18-5.79,5.37-9.23.48-1.39.62-2.74.55-4.21-.15-3.35-.16-6.7-.11-10.05.01-.92.2-2,.73-2.71,1.37-1.85,2.7-3.78,4.85-4.9.71-.37,1.44-.76,2-1.31,1.15-1.12,2.11-2.3,1.66-4.18-.45-1.86-.77-3.59-3.17-3.78-2.48-.19-3.68-1.96-4.64-4.02ZM488.62,691.45c1.05,0,1.6.02,2.15,0,13.65-.65,27.31-1.32,40.96-1.97,4.15-.2,8.3-.4,12.46-.54.68-.02,1.57,0,2.01.41,2.31,2.08,4.82,4.05,6.67,6.5,5.65,7.45,11.02,15.11,16.54,22.66.94,1.28,2.04,2.46,3.2,3.55.53.5,1.34.92,2.05.98,3.1.24,6.23.23,9.33.51,2.29.21,4.01-.65,5.57-2.28-.94-2.14-1.95-4.17-4.08-5.43-.82-.48-1.52-1.17-2.32-1.69-1.13-.73-1.7-1.72-2.11-3.03-1.25-4.02-1.37-8.17-1.86-12.29-.37-3.05.94-5.54,2.15-8.24,26.05.65,51.98,1.29,77.84,1.93.88-2.64.42-4.53-1.73-5.88-.2-.13-.34-.34-.54-.47-1.19-.77-1.58-1.85-1.53-3.26.06-1.65-.09-3.3-.16-5.03-1.72-.3-3.2-.55-4.71-.82-.79-1.68-.13-4.12-2.64-4.67v-12.81c-1.5-.23-2.89-.45-4.43-.68v-8.35c-1.04-.11-1.89-.2-2.77-.3-1.1-1.27-1.48-2.76-1.56-4.42-.16-3.34-.42-6.67-.64-10.02-.79-.28-1.46-.51-2.37-.84v-10.35c-.49-.12-.73-.26-.95-.23-2.25.27-3.31-.97-4.43-2.79-1.72-2.8-1.7-5.4-.09-8.04,1.24-2.02,1.07-3.86-.04-5.83-1.02-1.8-1.26-3.82-.82-5.81.34-1.55.08-2.88-.85-4.05-.73-.93-1.61-1.74-2.48-2.55-1.32-1.23-1.45-3.91-.22-5.26,1.25-1.36,1.08-4.17,0-5.62-.93-1.25-1.49-2.77-2.16-4.19-.11-.23-.04-.65.1-.89,1.4-2.43.38-4.95.59-7.39-1.42-.35-2.57-.64-3.9-.97-.18-2.07-.36-4.12-.55-6.29,1.98-.09,2.34-1.38,2.5-2.79.28-2.38.53-4.75.76-7.14.21-2.15.2-2.18-1.74-3.03-.91-.4-1.79-.73-1.64-2.09.91-.32,1.86-.65,2.8-.98,0-.86-.05-1.58,0-2.28.15-1.88-.33-3.42-1.94-4.58-.45-.32-.74-1.05-.83-1.63-.19-1.32-.21-2.67-.3-4.01,1.22-.49,2.24-.89,3.36-1.34.24-2.59.47-5.1.71-7.68-1.5-.44-2.77-.81-4.11-1.21.06-.85.1-1.54.15-2.32,1.45-.16,2.77-.31,4.03-.45.73-2.38.94-7.01.42-8.86-5.81-.18-11.63-.36-17.46-.55-6.23-.2-12.44-.63-18.57-1.92-4.52-.95-8.43-2.66-11.12-6.72-1.59-2.4-2.79-4.81-2.84-7.72-.01-.78-.12-1.56-.2-2.49-1.4-.18-2.67-.52-3.91-.46-4.55.22-9.12.53-13.35,2.45-5.15,2.35-10.54,3.64-16.17,4.07-1.75.14-3.54.15-5.22.59-3.63.95-7.18,2.18-10.79,3.19-1.42.4-1.96,1.21-1.91,2.59.21,6.54,0,13.13.74,19.62.55,4.89,1.28,9.8,2.06,14.68.38,2.38.53,4.73.08,7.13-.26,1.39-.12,2.86-.16,4.29-.08,2.47-.08,4.95-.26,7.41-.11,1.62-.15,3.18.59,4.68.56,1.14.5,2.21,0,3.41-.73,1.76-1.27,3.61-1.81,5.45-.17.58-.31,1.35-.06,1.83,1.21,2.38.55,4.6-.13,6.96-.77,2.67-1.6,5.46-1.54,8.19.06,3.18-.35,6.2-1.18,9.2-.31,1.13-.43,2.17.05,3.26.7,1.59.71,3.25.47,4.94-.17,1.19-.34,2.38-.34,3.58,0,1.68-.56,2.95-2.1,3.7-1.64.8-2.36,2.23-2.87,3.91-.3.99-.24,1.71.55,2.33,1.56,1.22,1.72,2.74,1.02,4.46-.4.2-.75.38-1.12.55-2.35,1.07-3.22,3.05-2.64,5.57.2.88.15,1.87,0,2.77-.24,1.49-.74,2.95-.98,4.44-.37,2.33-.56,4.73-3.8,5.02,0,2.19.08,4.18-.03,6.16-.06.99-.28,2.06-.76,2.91-.69,1.24-1.6,2.39-2.57,3.43-.76.82-.99,1.66-1.13,2.75-.25,1.95.07,4.22-2.32,5.37-.47.23-.67,1.21-.82,1.88-.35,1.54-.59,3.11-.86,4.58-3.4.96-3.56.95-3.65,4.2-.08,2.86-1.3,4.83-3.66,6.28-.81.5-1.58,1.09-2.32,1.69-.42.34-.95.73-1.09,1.2-.6,1.97-1.08,3.97-1.68,6.28ZM834.82,498.77c-.19,1.63-.37,2.97-.5,4.31-.56,5.56-1.1,11.13-1.66,16.69-.88,8.74-1.74,17.49-2.66,26.23-.16,1.51.17,2.74,1.06,4,24.94,35.32,49.85,70.67,74.77,106,.4.56.86,1.07,1.42,1.76,12.36-10.78,22.94-22.89,32.3-36.16-.43-.72-.77-1.34-1.17-1.93-24.82-37.34-49.64-74.68-74.43-112.03-.85-1.28-1.82-2.04-3.34-2.42-7.98-2-15.92-4.11-23.89-6.17-.53-.14-1.08-.18-1.9-.31ZM804.44,524.49c-.59.88-.95,1.62-1.49,2.2-3.36,3.54-6.72,7.07-10.15,10.53-1.05,1.06-1.69,2.26-2.14,3.66-6.13,19.34-12.25,38.67-18.45,57.99-.96,3-1.52,6-1.6,9.15-.28,11.27-.65,22.53-.99,33.8-.44,14.94-.88,29.88-1.31,44.82-.02.61.08,1.23.14,1.98h35.34c.15-.49.31-.85.37-1.23.98-5.99,1.95-11.98,2.92-17.97,4.08-25.23,8.17-50.46,12.24-75.69.39-2.43.86-4.8.45-7.35-1.48-9.31-2.74-18.65-4.09-27.98-1.24-8.54-2.49-17.07-3.79-25.6-.11-.74-.44-1.57-.94-2.09-1.9-1.94-3.91-3.76-6.5-6.21ZM857.95,481.71c44.5-2.4,88.92-4.79,133.44-7.19.15-1.2.31-2.13.38-3.08.25-3.27.49-6.53.69-9.8.72-11.26.61-22.53.12-33.79-.04-.91-.23-1.82-.36-2.8-1.33.26-2.35.46-3.36.67-19.54,4.08-39.08,8.16-58.61,12.25-19.61,4.11-39.22,8.25-58.84,12.31-1.3.27-2.13.87-2.87,1.88-4.41,5.98-8.86,11.94-13.28,17.91-.37.49-.64,1.06-1.06,1.76,2.81,2.66,2.44,6.49,3.76,9.88ZM951.44,299.38c-3.07,2.9-97.9,117.66-98.63,119.37.78-.24,1.45-.43,2.12-.66,19.04-6.49,38.08-12.99,57.13-19.45,1.42-.48,2.51-1.25,3.52-2.34,18.13-19.6,36.29-39.17,54.44-58.75.59-.63,1.14-1.3,1.7-1.95-5.58-12.85-12.15-24.94-20.29-36.22ZM981.49,528.32c4.27-16.56,7.67-32.9,9.52-49.88-44.61,1.83-88.82,3.64-132.92,5.45-1.24,2.71-.86,4.61,1.29,6.55,4.81,4.33,9.39,8.92,14,13.46,1.13,1.12,2.38,1.76,3.91,2.08,5.47,1.13,10.93,2.32,16.39,3.5,25.75,5.54,51.51,11.08,77.26,16.62,3.42.74,6.85,1.44,10.55,2.22ZM985.06,376.09c-.95.28-1.63.46-2.3.69-21.7,7.37-43.39,14.76-65.09,22.11-1.33.45-2.39,1.12-3.35,2.17-13.51,14.84-27.06,29.64-40.59,44.46-.52.56-.98,1.18-1.57,1.91,2.63.01,118.29-23.87,120.09-24.78-1.16-15.64-3.39-31.15-7.19-46.56ZM848.72,405.88c.2.04.4.09.6.13,25.11-44.93,50.22-89.85,75.39-134.88-8.86-6.83-18.2-12.17-28.69-15.65-.57.9-1.06,1.62-1.5,2.36-11.33,19.19-22.64,38.39-34,57.56-.96,1.62-1.58,3.28-1.8,5.14-1.07,9.04-2.17,18.08-3.24,27.12-2.07,17.53-4.12,35.05-6.17,52.58-.22,1.88-.39,3.76-.58,5.65ZM579.09,365.4c18.36,6.2,36.54,12.34,55.11,18.62-.52-1.88-.91-3.29-1.29-4.68,1.9-1.74,4.11-2.88,5.91-4.79-1.81-1.02-3.27-2.04-4.88-2.71-2.19-.92-2.46-2.59-2.43-4.66.71,0,1.26-.07,1.79.01,5.04.81,10.09,1.6,15.11,2.5,3.69.66,7.41.81,11.48,1.13-.53-2.47-1.24-4.61-1.4-6.79-.24-3.32-1.89-4.62-5.05-5.35-9.18-2.14-18.19-4.87-26.76-8.92-1.15-.55-1.96-1.19-2.46-2.38-.99-2.35-2.19-4.62-3.17-6.98-.35-.83-.54-1.86-.41-2.74.64-4.43,1.63-8.78,3.29-12.97.82-2.08,1.43-4.24,2.27-6.31.89-2.19,1.2-4.43,1.15-6.78-.08-3.19-.53-6.52.2-9.55.74-3.11,2.71-5.92,4.14-8.87.5-1.04,1.01-2.08,1.73-3.57-.87.33-1.23.43-1.55.6-5.58,3.12-11.17,6.22-16.71,9.4-.78.45-1.47,1.23-1.93,2.02-2.59,4.41-5.07,8.88-7.65,13.29-.67,1.15-.96,2.32-.94,3.64.05,2.72-.02,5.44.03,8.15.02,1.05-.32,1.81-1.13,2.48-1.23,1.01-2.46,2.05-3.56,3.21-1.84,1.94-3.89,3.24-6.7,3.01-.78-.06-1.58.27-2.38.26-1.23-.02-2.08.54-2.9,1.39-2.51,2.58-5.04,5.14-7.64,7.62-.95.91-1.3,1.87-1.29,3.16.06,4.79.02,9.59.02,14.39,0,1.03,0,2.05,0,3.18ZM828.25,554.04c-1.77,10.72-3.48,20.95-5.15,31.19-.1.61-.03,1.27.04,1.9,1.03,9.37,2.06,18.74,3.11,28.11.97,8.65,1.97,17.3,2.95,25.95,1.07,9.36,2.13,18.73,3.2,28.09.52,4.6,1.06,9.19,1.61,13.99,5.08.71,10.06,1.49,15.36,1.83-1.78-7.6-3.49-14.87-5.24-22.32,2.72-.49,5.12-.93,7.71-1.4,1.56,9,2.55,17.85,4.18,26.8,5.15-1.86,9.95-3.68,14.48-6.17-.25-.94-.41-1.63-.62-2.32-10.15-34.13-20.4-68.24-30.39-102.42-2.19-7.51-4.87-14.66-9.51-21-.28-.39-.5-.82-.78-1.2-.17-.24-.4-.43-.96-1.02ZM816.99,382.37c.18.03.36.06.55.1.38-.59.78-1.18,1.14-1.78,12.92-21.68,25.83-43.36,38.78-65.03.77-1.28,1.17-2.6,1.29-4.05.84-10.27,1.69-20.53,2.54-30.8.59-7.08,1.2-14.16,1.78-21.25.22-2.67.39-5.35.59-8.16-1.22,0-2.17-.08-3.1.01-8.13.76-16.1,2.33-23.94,4.64-1.62.48-2.08,1.35-2.28,2.84-1.29,9.57-2.64,19.14-3.99,28.7-2.16,15.25-4.35,30.5-6.51,45.76-2.06,14.54-4.12,29.09-6.17,43.63-.25,1.79-.44,3.59-.67,5.38ZM845.1,419.29c3,.57,4.79-.25,6.53-2.4,31.95-39.42,63.99-78.77,96.01-118.14.55-.67,1.08-1.36,1.74-2.19-6.52-8.66-13.74-16.47-22.29-23.54-27.36,48.82-54.6,97.41-81.99,146.27ZM805.98,269.78c-1.14.64-1.89,1.04-2.61,1.48-8.96,5.45-17.33,11.71-25.32,18.5-1.27,1.08-1.79,2.19-1.78,3.87.06,18.05.05,36.11.01,54.16,0,1.58.38,2.94,1.11,4.32,5.18,9.72,10.51,19.38,15.38,29.25,1.91,3.87,4.27,6.49,8.56,7.36,1.68.34,3.27,1.12,5.21,1.81-.19-40.31-.38-80.23-.56-120.74ZM867.64,505.88c-.09.14-.19.28-.28.43,24.89,37,49.77,74,74.68,111.04,3.96-3.84,19.22-31.22,20.99-37.58-.54-.47-1.12-1-1.73-1.5-27.46-22.46-54.93-44.89-82.35-67.39-2.21-1.81-4.5-3.23-7.29-3.88-1.35-.31-2.68-.74-4.02-1.12ZM694.84,639.41c.67-1,1.04-1.72,1.57-2.3,20.13-22.1,40.29-44.18,60.41-66.29.73-.81,1.36-1.78,1.78-2.79,1.94-4.73,3.8-9.49,5.68-14.24.25-.63.39-1.3.59-1.98-.36-.04-.55-.13-.65-.07-3.39,2.1-7.01,3.91-10.11,6.38-4.82,3.85-9.79,7.44-14.97,10.77-.98.62-1.96.9-3.12.98-8.05.61-15.94.1-23.55-2.84-.15-.06-.33-.04-.47-.11-1.49-.76-2.41-.2-3.39,1.08-8.82,11.46-17.71,22.88-26.62,34.28-.88,1.12-1.12,2.1-.74,3.48,2.97,10.65,6.76,20.98,11.93,30.77.4.75.84,1.48,1.65,2.9ZM487.15,332.33c-2,0-3.75,0-5.49,0-7.5.03-14.79,1.3-21.77,4.01-4.09,1.59-8.04,3.51-12.01,5.38-4.09,1.92-7.16,4.99-9.48,8.83-.29.47-.57.98-.69,1.52-.77,3.42-1.63,6.78-1.69,10.36-.18,10.55-.38,21.09.47,31.61.05.63-.03,1.38.29,1.86,1.6,2.46,2.76,5.29,5.44,6.87,2.73,1.61,5.1,3.52,6.38,6.52.03.06.13.09.28.18.21-.16.51-.3.69-.53,2.94-3.88,6.94-6.57,10.67-9.57,3.29-2.65,6.77-5.1,9.53-8.37.56-.66,1.18-1.36,1.45-2.14,1.81-5.2,3.66-10.39,5.27-15.66,2.72-8.85,5.27-17.75,7.91-26.62,1.34-4.52,2.34-9.11,2.77-14.25ZM628.91,407.14c-18-6.78-35.68-13.44-53.49-20.15-.22.95-.43,1.63-.52,2.33-1.02,7.28-1.86,14.59-3.1,21.83-.5,2.9.18,5.02,1.91,7.23,1.15,1.47,2.38,2.44,4.18,2.88,1.68.41,3.31,1.02,5.03,1.56-1.31,4.26-2.54,8.28-3.78,12.33,6.03,5.53,11.91,10.95,17.85,16.28.63.57,1.71.82,2.6.87,3.91.22,7.83.34,11.74.42,2.94.06,5.89.01,9.08.01,2.81-15.09,5.64-30.21,8.51-45.6ZM769.12,566.39c-.18-.08-.36-.16-.54-.24-.53.56-1.08,1.1-1.59,1.68-3.49,3.96-6.99,7.9-10.42,11.9-.87,1.01-1.65,2.17-2.21,3.38-12.51,27.02-24.99,54.06-37.47,81.1-.36.78-.66,1.59-1.02,2.47,7.42,6.91,15.54,12.56,24.63,17.08.36-.94.64-1.6.87-2.27,9.05-26.35,18.1-52.69,27.11-79.05.4-1.18.61-2.49.62-3.74.05-10.07.03-20.13.03-30.2v-2.11ZM881.66,509.36c-.08.18-.17.36-.25.54,27.75,21.99,55.5,43.98,83.54,66.19,6.42-14.65,11.52-29.34,15.65-44.62-33.19-7.42-66.06-14.76-98.93-22.11ZM903.8,660.68c-3.29-5.62-62.53-89.71-64.18-90.98,11.4,37.05,22.71,73.84,34.09,110.85,10.96-5.6,20.82-12.17,30.08-19.87ZM833.14,257.59c-.66,0-.83-.04-.97,0-8.14,2.7-15.86,6.32-23.36,10.45-.9.49-1.21,1.14-1.18,2.13.09,2.88.14,5.75.18,8.63.39,36.61.8,73.21,1.08,109.82.02,2.72,1.24,3.99,3.62,5.23,6.9-45.52,13.75-90.8,20.64-136.26ZM465.62,659.34c.47-.89.85-1.49,1.12-2.15,2.78-6.71,5.51-13.44,8.35-20.12.64-1.5.28-2.46-.74-3.61-4.14-4.66-8.18-9.4-12.26-14.11-7.74-8.94-15.47-17.88-23.23-26.8-.55-.63-1.28-1.51-1.97-1.56-2.6-.19-5.22-.07-7.96-.07-.06.31-.19.69-.19,1.06,0,9.82.02,19.65.06,29.47,0,.6.14,1.33.5,1.78,3.06,3.78,5.89,7.82,9.36,11.18,8.2,7.95,16.71,15.58,25.1,23.33.52.48,1.07.92,1.86,1.59ZM856.01,325.27c-.17-.07-.34-.13-.51-.2-.47.71-.96,1.4-1.41,2.13-12.03,19.52-24,39.07-36.12,58.54-1.79,2.87-2.08,5.93-2.63,9.09.6.27,1.02.45,1.45.65,3.83,1.78,7.68,3.54,11.49,5.36.7.33,1.39.83,1.89,1.42,3.55,4.21,7.3,8.28,9.49,13.45.47,1.1,1.1,2.13,1.68,3.18.29.51.64.99,1.15,1.79,1.12-2.31,2.15-4.28,3.03-6.31.47-1.08.83-2.24.97-3.4.88-7.46,1.68-14.92,2.51-22.38,1.07-9.6,2.14-19.21,3.21-28.81.89-7.94,1.78-15.87,2.66-23.81.4-3.56.77-7.13,1.15-10.69ZM840.97,449.82c.99-1.2,1.92-2.39,2.92-3.52.4-.45.92-.99,1.46-1.1,2.81-.58,5.66-.76,8.54-.42.3.96.55,1.8.82,2.63.61,1.85,1.67,2.59,3.55,2.43,2.55-.21,5.09-.55,7.64-.65,1.49-.06,2.49-.59,3.47-1.7,12.73-14.44,25.51-28.84,38.26-43.26.38-.43.68-.95,1.31-1.83-1.24.4-1.99.62-2.72.87-19,6.56-38.01,13.12-57,19.71-4.59,1.59-3.43.38-4.4,5.11-1.45,7.1-1.48,7.28-6.75,12.12-.24.22-.48.43-.71.64-1.49,1.4-1.69,3.14-1.34,5.03.37,1.96,1.29,3.37,3.46,3.62.46.05.92.19,1.48.31ZM739.28,332.4c-1.11,1.54-2.05,2.82-2.96,4.12-1.16,1.66-1.16,1.67,0,3.31,2.66,3.79,5.34,7.57,8.02,11.36,6.5,9.2,13,18.41,19.51,27.59.45.63.98,1.46,1.63,1.63,2.2.59,4.43,1.15,6.82,1.06.07-.45.16-.75.17-1.06.35-11.18.68-22.36,1.06-33.54.04-1.29-.43-2.31-1.02-3.36-5.37-9.53-10.72-19.08-16.09-28.61-.38-.68-.81-1.33-1.23-2.02-2.68,2.3-12.17,14.09-13.52,16.78,1.64,2.15,3.32,4.36,5.11,6.7-.68.8-1.27,1.51-2.06,2.45-1.82-2.14-3.5-4.13-5.43-6.4ZM696.11,641.75c4.98,8.44,10.76,16.06,17.96,23.16,13.46-28.73,26.72-57.07,39.96-85.42l-.49-.31c-19.1,20.82-38.21,41.63-57.42,62.56ZM388.85,250.52c.65.72.99,1.14,1.36,1.52,8.18,8.2,16.26,16.5,24.58,24.56,4.93,4.77,10,9.46,15.43,13.63,10.83,8.31,22.02,16.16,32.94,24.37,6.47,4.86,13.28,9.13,20.45,12.86.55.29,1.12.51,1.92.88.78-1.41,1.46-2.75,2.24-4.02.4-.65.87-1.51,1.5-1.73,2.37-.83,3.7-2.68,5.05-4.57,1.55-2.17,1.26-5.99-.46-8-.91-1.06-2.11-1.31-3.35-1.65-2.45-.66-5.02-1.16-6.24-3.93-1.35.25-2.63.37-3.83.72-2.75.8-5.38-.15-8.05-.46-.49-.06-1.05-.47-1.37-.88-1.13-1.46-2.71-1.85-4.39-2.11-1.03-.15-2.08-.23-3.06-.56-1.65-.56-3.56-1.13-3.79-3.17-.29-2.54-1.59-4.01-3.82-4.99-1.6-.7-3.1-1.65-4.69-2.39-10.01-4.62-19.65-9.96-29.3-15.27-1.25-.68-2.43-1.54-3.51-2.46-6.97-5.98-13.89-12.02-20.87-18-2.42-2.07-5.09-3.74-8.75-4.36ZM972.81,338.25c-17.25,18.86-34.25,37.44-51.24,56.01.1.14.21.29.31.43,20.74-7.4,41.5-14.76,62.31-22.26-3.02-11.75-6.62-22.93-11.38-34.19ZM391.03,615.38c-.14-.07-.28-.14-.41-.21-.4.47-.84.91-1.2,1.4-7.97,10.71-15.94,21.41-23.89,32.14-.56.76-1.06,1.61-1.39,2.49-3.55,9.58-7.04,19.2-10.63,28.77-.49,1.3-.39,2.28.47,3.29.41.49.77,1.02,1.11,1.56.54.83,1.27,1.07,2.25,1.03,3.67-.16,7.35-.32,11.03-.35,1.41,0,2.15-.62,2.82-1.76,3.26-5.59,6.61-11.13,9.87-16.72.47-.8.8-1.74.97-2.66,2.07-11.07,4.11-22.14,6.15-33.22.97-5.25,1.91-10.51,2.86-15.76ZM383.59,579.56c-1.48.23-3.38.22-5.04.86-2.37.91-4.61,2.19-6.82,3.47-9.88,5.72-19.72,11.52-29.61,17.24-1.14.66-1.8,1.44-1.88,2.78-.33,5.66-.71,11.32-1.04,16.98-.03.5.13,1.01.22,1.64.73-.2,1.27-.31,1.79-.49,10.12-3.45,20.24-6.92,30.37-10.34,1.22-.41,2.02-1.14,2.72-2.16,4.72-6.84,9.47-13.65,14.21-20.48.39-.57.72-1.18.93-1.52-1.94-2.65-3.73-5.08-5.85-7.97ZM383.25,571.17c.22-3.24.23-6.04.65-8.77.36-2.35,1.08-4.66,1.84-6.93.54-1.6.31-2.76-.73-4.13-7.08-9.27-14.06-18.61-21.07-27.93-.9-1.2-1.79-2.41-2.72-3.65-3.83,5.12-12.58,32.14-12.39,38.21,7.52,4.32,15.1,8.68,22.99,13.22.09-1.09.19-1.77.18-2.45-.03-3.35-.19-6.71-.09-10.06.06-1.97.5-3.94.8-5.9.2-1.31,1.28-1.62,2.32-1.63,1.03-.01,1.73.61,1.96,1.74.68,3.38.64,6.63-1.16,9.74-.54.94-.86,2.05-1.06,3.12-.47,2.57,1.16,4.49,2.16,6.94,2.24-.54,4.3-1.03,6.32-1.52ZM821.4,601.29l-.55.08c-4.04,29-8.08,58.01-12.11,86.98,2.52.59,20.84.53,22.9-.07-3.41-28.97-6.82-57.98-10.24-86.99ZM412.44,622.85l-.47.04c-.13.43-.3.86-.39,1.3-2.55,11.53-5.1,23.06-7.63,34.59-.68,3.12-1.59,6.22-1.89,9.37-.51,5.32-.63,10.68-.9,16.02-.03.61.06,1.23.11,2.02.98.09,1.84.2,2.7.23,2.47.09,4.96.33,7.42.18,3.57-.22,6.3.94,8.33,3.93.57.84,1.2,1.85,2.45,2.2.06-.47.12-.79.13-1.1.3-12.14.61-24.27.85-36.41.02-1.24-.21-2.55-.62-3.73-3.06-8.9-6.2-17.78-9.31-26.67-.23-.67-.51-1.32-.77-1.97ZM439.91,686.41c1.1.08,2.12.13,3.14.22,1.82.15,3.9.95,5.38.32,1.49-.63,2.33-2.71,3.55-4.08,1.09-1.23,1.12-2.4.52-3.92-5.66-14.5-11.24-29.04-16.87-43.56-.34-.88-.79-1.75-1.35-2.51-1.91-2.56-3.88-5.08-5.85-7.6-.32-.41-.72-.75-1.27-1.31-.15.59-.26.87-.28,1.16-.66,10.36-1.32,20.73-1.94,31.1-.05.77.08,1.61.33,2.34,3.89,10.99,7.81,21.97,11.74,32.94.14.38.46.7.84,1.25.72-2.23,1.36-4.19,2.05-6.33ZM724.2,468.5c-15.23,3.83-29.97,7.54-44.82,11.28-.82,4.92-1.62,9.71-2.47,14.82,13.59.46,26.95.92,40.48,1.38,2.26-9.11,4.46-18,6.81-27.48ZM449.18,560.33c.6-.38.87-.51,1.08-.7,3.7-3.16,7.37-6.36,11.11-9.47,1.34-1.11,2.81-2.1,4.33-2.95,8.15-4.55,16.33-9.04,24.5-13.56.83-.46,1.64-.95,2.54-1.47-.59-7.6-1.42-15.07-3.21-22.6-.77.39-1.28.61-1.73.89-8.33,5.2-16.63,10.43-24.98,15.58-1.2.74-1.78,1.72-2.23,2.95-3.52,9.58-7.06,19.16-10.59,28.74-.27.72-.47,1.47-.82,2.58ZM743.7,685.15c5.35,2.97,7.78,3.62,13.28,3.62,2,0,4,.02,6-.01.61,0,1.21-.14,2.04-.25,1.08-24.24,2.16-48.36,3.23-72.47-.21-.04-.43-.08-.64-.12-7.96,23.05-15.92,46.1-23.91,69.23ZM706.34,528.79c-.75-.06-1.36-.16-1.97-.16-2.88-.02-5.75-.08-8.63.03-1.07.04-2.22.31-3.17.79-5.68,2.92-11.28,5.98-16.96,8.9-1.31.67-1.87,1.49-1.81,2.96.31,8.38.56,16.76.86,25.13.03.83.24,1.66.4,2.74.99-.56,1.69-.92,2.35-1.34,6.98-4.35,13.92-8.76,20.94-13.04,1.77-1.08,3.05-2.18,2.9-4.43-.06-.86.21-1.74.27-2.61.36-5.12,1.14-10.14,3.45-14.81.46-.93.8-1.92,1.15-2.89.13-.35.13-.75.21-1.27ZM431.32,474.14c-.13-.03-.25-.07-.38-.1-.24.54-.53,1.07-.71,1.63-5.78,17.6-11.57,35.2-17.31,52.81-.31.96-.48,2.03-.46,3.04.11,5.19.43,10.39.4,15.58-.01,2.61.98,4.59,2.69,6.7,3.78-.91,7.62-1.84,11.67-2.82,1.37-25.71,2.74-51.27,4.11-76.84ZM723.41,463.19c.61-2.51,1.16-16.32.73-18.05-.53.05-1.09.05-1.63.15-11.98,2.34-23.94,4.71-35.93,7-1.4.27-2.02.89-2.31,2.24-1.25,5.69-2.59,11.35-3.87,17.03-.13.57-.07,1.19-.11,1.98,14.57-3.5,28.89-6.94,43.12-10.36ZM492.02,434.03c.29-.43.55-.73.72-1.08,2.4-5.15,6.05-9.35,10.07-13.26,1.03-1,2.03-2.04,2.97-3.13,1.02-1.17,2.24-1.98,3.67-2.59,2.92-1.25,5.79-2.6,8.92-4.02-.73-.83-1.28-1.49-1.87-2.11-6.61-7.05-13.27-14.05-19.81-21.16-1.69-1.84-3.79-2.46-6.19-3.08-1.64,3.47-3.17,6.87-3.03,10.75.15,4.47.24,8.94.5,13.4.42,7.17.97,14.33,1.46,21.5.13,1.89.57,3.61,2.59,4.8ZM866.87,251.4c-.8,3-4.84,53.72-4.31,55.65,10.2-17.55,20.28-34.89,30.37-52.26-5.35-2.52-21.43-4.55-26.06-3.39ZM365.05,263.01c1.33-2.21,2.62-4.48,4.04-6.68,1.9-2.95,3.78-5.98,7.1-7.59,2.43-1.18,3.88-3.22,5.28-5.34-.56-1.87-1.68-3-3.49-3.67-5.25-1.96-9.79-4.95-13.35-9.39-1.94-2.42-4.8-2.66-7.41-.96-.53.35-1.06.73-1.51,1.17-3.91,3.78-7.82,7.55-11.67,11.39-.75.74-1.22,1.76-1.84,2.69.98,1.06,1.71,1.9,2.5,2.69,2.1,2.08,4.33,4.04,6.31,6.23,1.59,1.76,3.37,3.11,5.56,4.02.93.38,2.04.88,2.54,1.66,1.32,2.03,3.19,3.03,5.94,3.79ZM398.31,468.59c-.52.3-.84.4-1.05.61-3.31,3.34-6.65,6.66-9.88,10.09-.51.54-.71,1.59-.7,2.39.16,9.42.41,18.83.6,28.24.02,1.17.34,2.15,1.04,3.1,2.59,3.54,5.12,7.13,7.69,10.68.3.42.71.76,1.16,1.24.25-.44.46-.69.55-.97,1.99-6.06,4-12.11,5.93-18.19.23-.72.21-1.57.1-2.33-1.34-8.91-2.72-17.81-4.11-26.72-.41-2.66-.88-5.31-1.35-8.15ZM710.83,520.84c1.76-6.57,3.72-12.67,5.22-19.19-13.37.14-26.37.75-39.52-.83-.79,5.41-1.28,10.51-1.55,15.81,12.07,1.42,23.85,2.8,35.85,4.21ZM450.5,563.37c14.26-.82,28.22-1.69,42.22-2.68.62-8.97.85-17.61.07-26.57-1.06.55-1.77.88-2.44,1.27-4.35,2.53-8.61,5.24-13.05,7.59-9.26,4.88-17.6,10.98-25.05,18.3-.4.39-.83.75-1.22,1.15-.14.15-.21.37-.51.94ZM371.89,499.49c-3.42,6.05-6.58,11.66-9.65,17.1,3.01,4.94,23.71,32.5,25.34,33.67,0-1.47.06-2.8,0-4.12-.56-10.21-1.16-20.41-1.69-30.62-.07-1.28-.43-2.25-1.36-3.16-2.79-2.74-5.5-5.57-8.24-8.36-1.34-1.36-2.66-2.74-4.38-4.5ZM446.72,570.36c14.2,5.26,28.36,10.51,42.82,15.87,1.49-7.92,2.56-15.58,3.01-23.51-.7,0-1.09-.03-1.47,0-4.37.35-8.75.71-13.12,1.07-8.99.73-17.97,1.48-26.96,2.19-3.18.25-2.89-.31-4.01,3.23-.09.29-.14.6-.27,1.15ZM701.6,556.73c-.6.27-.97.38-1.28.59-7.87,5.32-15.71,10.67-23.6,15.95-1.13.76-1.33,1.64-1.12,2.84,1.26,7.3,2.5,14.61,3.77,21.92.1.58.39,1.12.72,2.04,9.19-11.43,18.15-22.58,27.28-33.93-5.23-1.24-5.16-5.48-5.77-9.41ZM487.67,595.71c-16.19-4.18-32.06-8.29-48.13-12.44,0,1.22.02,2.08,0,2.95-.06,2.88,1.17,4.65,3.92,5.86,12.65,5.56,25.22,11.29,37.82,16.96.71.32,1.44.6,2.49,1.03,1.3-4.77,2.54-9.36,3.9-14.37ZM370.92,615.91c-.13-.08-.27-.15-.4-.23-.54.64-1.09,1.26-1.6,1.92-7.85,10.09-15.69,20.18-23.52,30.29-1.27,1.63-3.12,3.21-3.47,5.05-.37,1.94.66,4.19,1.21,6.27.54,2.04,1.24,4.04,1.89,6.13.49-.22.73-.28.91-.43,5.34-4.33,10.69-8.63,15.97-13.03.66-.55,1.12-1.55,1.32-2.42,1.99-8.47,3.91-16.95,5.84-25.43.62-2.7,1.23-5.41,1.85-8.11ZM483.25,611.81c-3.63-2.18-38.43-17.08-40.24-17.19,11.1,12.85,22.08,25.56,33.34,38.59,2.73-7.29,4.82-14.28,6.9-21.41ZM396.95,686.3c.2-1.31.47-2.7.62-4.11.35-3.24,1.09-6.44.72-9.76-.89-8.01-1.68-16.04-2.54-24.05-.06-.55-.32-1.08-.54-1.78-.36.42-.54.57-.66.77-3.44,6.13-6.87,12.26-10.28,18.4-.3.54-.51,1.18-.56,1.8-.48,5.65-.93,11.3-1.37,16.95-.04.52.1,1.05.17,1.79h14.42ZM391.18,590.03c-.73.98-1.2,1.57-1.63,2.2-4.77,7.08-9.57,14.14-14.27,21.27-.86,1.3-1.54,2.8-1.94,4.3-1.95,7.4-3.77,14.83-5.63,22.26-.17.67-.29,1.36-.44,2.04.55-.11.83-.35,1.05-.63,7.31-9.68,14.62-19.36,21.87-29.08.52-.7.79-1.73.84-2.62.13-2.87.12-5.74.14-8.62.02-3.5,0-7.01,0-11.12ZM446.77,504.12c-.18.38-.39.72-.53,1.09-5.55,14.81-11.09,29.62-16.62,44.44-.22.59-.5,1.25-.43,1.84.49,4.67,1.06,9.32,1.64,14.24,1.49-2.17,22.54-59.6,22.62-61.62h-6.68ZM499.61,355.23c-.63,3.45-1.11,6.6-1.81,9.7-.3,1.31.09,2.04,1.04,2.85,7.12,6.05,14.19,12.15,21.29,18.22.39.33.87.55,1.45.91.06-.55.14-.86.13-1.16-.23-6.54-.51-13.08-.69-19.62-.04-1.35-.66-1.97-1.8-2.46-5.85-2.54-11.68-5.14-17.52-7.7-.57-.25-1.17-.42-2.1-.74ZM396.69,638.19c.69-1.11,1.12-1.75,1.5-2.43,2.48-4.46,4.95-8.93,7.42-13.4,1.15-2.1,2.86-4.11,3.24-6.34.38-2.23-.57-4.68-.94-7.04-.07-.47-.18-.94-.23-1.42-.14-1.24-.72-2.21-1.57-3.13-3.43-3.68-6.8-7.41-10.2-11.11-.41-.45-.89-.84-1.65-1.56-.3,15.59.06,30.74,2.44,46.43ZM464.7,661.38c-8.62-8.14-17.18-16.21-25.73-24.28-.15.1-.29.21-.44.31,5.14,13.92,10.26,27.85,15.67,42.21,4.13-6.1,7.43-11.98,10.51-18.24ZM757.05,310.44c5.25,10.14,10.35,20,15.66,30.23.59-2.82.47-43.93-.1-46.01-5.47,5.05-10.58,10.25-15.56,15.78ZM339.17,625.07c-.13,7.76.42,15.32,1.65,22.98,2.04-1.45,25.81-30.41,26.48-32.29-9.45,3.13-18.73,6.2-28.13,9.32ZM489.16,588.64c-14.55-5.29-28.85-10.48-43.28-15.73-1.73,2.85-3.33,5.49-5.08,8.37,15.82,4.28,31.35,8.47,47.14,12.74.41-1.81.78-3.42,1.23-5.38ZM519.21,346.56c0-1.17.05-2.12,0-3.06-.37-6.54-.84-13.08-.06-19.62.19-1.58.28-3.18.55-4.75.24-1.39-.39-2.14-1.57-2.54-2.49-.82-5.03-.89-7.55-.22-.53.14-1.22.65-1.35,1.12-.75,2.68-1.41,5.39-1.97,8.11-.14.7.05,1.56.36,2.23.88,1.93,1.91,3.79,2.91,5.76-1.04.92-1.82,1.73-2.72,2.36-.83.59-1.8.99-2.7,1.46-.73,3.39-.06,4.77,2.78,6.57,3.4,2.15,7.18,2.42,11.31,2.58ZM344.05,577.98h28.82c-.28-1.24-.7-2.3-.74-3.38-.05-1.31-.62-1.96-1.73-2.54-6.98-3.69-13.93-7.45-20.9-11.17-.45-.24-.97-.36-1.71-.63-1.26,5.95-2.47,11.7-3.75,17.73ZM772.9,553.52c.84-.52,1.19-.68,1.47-.91,4.5-3.72,8.97-7.46,13.48-11.15.88-.72,1.21-1.62,1.44-2.65.96-4.36,1.95-8.72,2.91-13.09.27-1.21.48-2.42.77-3.88-1.32,0-2.35.06-3.38-.02-1.14-.08-1.97.29-2.69,1.18-3.87,4.78-7.8,9.51-11.66,14.3-.48.59-.94,1.37-1.02,2.1-.49,4.51-.87,9.04-1.34,14.13ZM723.22,437.62c0-.2,0-.4.01-.6-10.29-3.56-20.59-7.13-31.07-10.76-1.77,5.61-3.5,10.92-4.85,16.8,12.29-1.86,24.1-3.65,35.91-5.45ZM340.98,598.71c.66-.25,1.04-.34,1.37-.52,10.97-6.07,21.93-12.16,32.89-18.24.04-.02.04-.13.03-.2-.01-.07-.05-.14-.19-.47-10.41.68-20.92,1.36-31.54,2.06-1.1,5.81-2.06,11.42-2.56,17.37ZM405.41,501.19c.12.02.24.04.36.05.28-.62.59-1.24.83-1.88,1.34-3.59,2.72-7.16,3.96-10.78.43-1.25.68-2.64.64-3.95-.25-7.9-.6-15.79-.94-23.69-.02-.42-.19-.84-.39-1.68-3.13,2.36-6.01,4.48-8.82,6.7-.39.31-.54,1.08-.58,1.65-.05.7.11,1.43.22,2.14,1.1,7.42,2.19,14.84,3.3,22.25.46,3.06.94,6.12,1.42,9.19ZM476.99,434.09c.59-3.78,1.13-7.24,1.64-10.7.06-.38-.16-.79-.15-1.18.05-1.63-.83-2.38-2.31-2.85-2.81-.89-5.63-1.8-8.33-2.96-1.88-.81-3.78-1.16-5.77-1.4-1.11-.13-1.86.18-2.33,1.19-.52,1.13-1.34,1.93-2.49,2.46-2.23,1.02-3.23,2.91-3.69,5.47,2.14.67,4.18,1.29,6.21,1.95,3.25,1.07,6.49,2.19,9.75,3.24,1.1.36,1.83,1.02,2,2.15.18,1.25.89,1.74,2.07,1.89,1.02.13,2.01.43,3.39.75ZM827.08,547.81l.42-.17c-.99-4.46-1.98-8.92-2.97-13.38-.99-4.44-1.97-8.87-2.97-13.3-1-4.44-1.82-8.93-3.17-13.7-1.62,1.53-2.86,2.76-4.16,3.91-.85.75-1.15,1.61-1.12,2.74.12,4.71.21,9.41.24,14.12,0,1.35.47,2.43,1.28,3.49,3.78,4.94,7.51,9.92,11.27,14.89.37.49.79.94,1.18,1.41ZM828.17,534.34c.13-.02.27-.04.4-.05.98-12.36,1.96-24.72,2.95-37.17-2.89-1.17-5.6-2.27-8.52-3.45-1.04,3.1-2.04,5.95-2.92,8.83-.17.55.08,1.25.23,1.86,2.42,9.52,4.85,19.03,7.29,28.54.13.5.38.96.57,1.45ZM791.68,385.36c.11-.18.21-.36.32-.54-5.12-10.04-10.24-20.09-15.36-30.13-.21.04-.42.08-.63.13-.38,8.68-.76,17.37-1.15,26.22,5.78,1.49,11.31,2.9,16.83,4.32ZM462.98,523.56c.13.1.26.2.39.3,8.56-5.5,17.11-11,25.74-16.55-.32-1.25-.59-2.31-.91-3.57-6.96.66-13.76,1.3-20.75,1.96-1.51,6.01-2.99,11.94-4.47,17.86ZM615.87,267.42c-.08-.22-.16-.45-.25-.67-8.24.06-16.46-.74-24.86-.51.52,5.99,1.01,11.68,1.55,17.9,8.15-5.79,15.86-11.25,23.56-16.71ZM401.49,575.01c.62.07,1.32.2,2.02.23,4.46.18,8.93.26,13.39.54,2.44.15,4.46-.78,6.86-1.91-2.19-2.27-4.31-4.31-6.23-6.51-1.97-2.25-3.75-4.67-5.67-7.09-4.06,2.19-8.12,4.37-12.09,6.51.58,2.77,1.11,5.32,1.72,8.22ZM430.1,541.32c.19.03.38.06.57.1,4.16-12.58,8.32-25.17,12.54-37.92-2.1-.5-4.02.65-5.69-.5-1.53-1.05-3.05-2.1-4.81-3.31-.88,14.04-1.74,27.83-2.61,41.63ZM785.58,547.83c-.14-.07-.27-.14-.41-.21-.42.33-.87.64-1.26,1.01-3.66,3.45-7.28,6.95-10.99,10.36-1.04.95-1.42,1.95-1.37,3.34.29,8.3.5,16.61.76,24.91.02.58.13,1.16.2,1.74.14.02.29.03.43.05,4.21-13.73,8.43-27.46,12.64-41.2ZM424.77,666.43c-.13.78-.22,1.06-.22,1.34.07,7.98.17,15.97.22,23.95,0,1.15.45,1.94,1.27,2.68,2.18,1.99,4.3,4.05,6.46,6.07.39.36.85.65,1.51,1.13.91-.98,2.26-1.77,2.48-2.8.41-1.89.53-3.89-.32-5.86-3.51-8.13-6.91-16.31-10.36-24.46-.23-.55-.54-1.07-1.04-2.04ZM811.96,495.15c-.09.41-.23.86-.27,1.32-.21,2.11-1.05,3.95-2.14,5.76-2.76,4.58-5.4,9.22-8.1,13.83-.44.75-.83,1.61-1.46,2.17-2.5,2.22-1.71,4.94-1.56,7.82.45-.28.68-.37.83-.53,6.19-6.88,12.37-13.76,18.55-20.66.31-.35.7-.78.73-1.19.19-2.75.28-5.52.42-8.53h-6.98ZM411.91,611.2c-.2.09-.4.18-.6.26.73,3.32,1.14,6.77,2.27,9.95,2.8,7.88,5.93,15.64,8.94,23.44.14.36.46.64.94,1.3.1-1.08.17-1.7.21-2.32.3-5.73.58-11.46.89-17.19.2-3.71.22-3.71-2.62-6.29-1.59-1.45-3.18-2.9-4.77-4.35-1.75-1.6-3.51-3.2-5.27-4.79ZM384.98,482.89c-.2-.06-.4-.11-.6-.17-4.02,4.85-7.78,9.9-11.23,15.24,4.24,4.42,8.28,8.64,12.33,12.86.18-.07.36-.15.54-.22-.34-9.24-.69-18.48-1.03-27.72ZM414.05,559.79c3.69,4.55,7.39,9.1,11.11,13.69,1.62-.73,2.98-1.34,4.42-1.98-.83-5.95-1.63-11.68-2.47-17.71-3.71.66-7.13,1.26-10.57,1.87-.25.79-.35,1.54-.71,2.13-.4.67-1.04,1.2-1.77,2.01ZM601.71,507.86h23.18v-7.43c-3.01-.56-21.54-.4-23.18.18v7.25ZM833.16,490.24c-.03,2.8,1.1,4.16,3.7,4.88,7.75,2.15,15.42,4.59,23.13,6.91.82.25,1.65.45,2.74.74-.29-.57-.39-.88-.58-1.11-2.71-3.35-5.46-6.67-8.12-10.05-.7-.89-1.53-1-2.52-1.02-5.34-.11-10.69-.24-16.03-.35-.77-.02-1.54,0-2.31,0ZM821.55,578.86c.15,0,.3.01.46.02.12-.5.3-.99.36-1.5.48-4.12.93-8.24,1.39-12.36.49-4.44.94-8.88,1.5-13.31.19-1.5-.2-2.55-1.34-3.56-2.27-2.01-4.4-4.18-6.59-6.27-.44-.42-.92-.79-1.39-1.18-.16.07-.31.14-.47.21,2.03,12.65,4.05,25.3,6.08,37.95ZM425.99,619.38c.58-1.74.97-12.47.59-16.07-3.75-.53-7.58-1.07-11.72-1.65-.11,2.31-.14,4.36-.34,6.4-.15,1.51.31,2.53,1.54,3.47,2.85,2.19,5.59,4.52,8.38,6.79.48.39,1.01.69,1.56,1.06ZM409.22,622.58l-.43-.18c-.4.66-.81,1.32-1.18,1.99-3,5.37-5.94,10.78-9.01,16.1-.86,1.48-1.12,2.9-.83,4.55.83,4.88,1.58,9.77,2.37,14.66.05.31.23.61.36.91.15-.01.3-.03.44-.04,2.76-12.67,5.52-25.33,8.29-38ZM346.05,667.64c1.14,4.07,4.08,9.91,5.99,11.79,2.96-7.93,5.88-15.75,8.79-23.56-.16-.09-.31-.19-.47-.28-4.8,4.04-9.6,8.08-14.31,12.05ZM846.81,461.64c.14.94.18,1.83.44,2.65.17.54.55,1.18,1.02,1.43,1.66.9,3.39,1.66,5.22,2.52,3.77-5.45,7.55-10.73,11.17-16.12-.1-.15-.21-.3-.31-.45-3.71.74-7.43,1.48-11.12,2.21-.56,1.9.46,4.12-1.32,5.33-1.47,1-3.24,1.56-5.11,2.42ZM387.9,515.32c-.48,2.59,1.66,28.01,2.53,29.83,1.93-5.65,3.79-11.14,5.69-16.62.33-.94-.17-1.51-.61-2.16-2.22-3.3-4.45-6.61-6.68-9.91-.24-.36-.55-.68-.93-1.14ZM438.05,405.39c-.42,1.61-.94,2.73-.97,3.86-.08,3.21-.98,6.09-2.83,8.71-.94,1.33-1.27,2.83-1.26,4.67,1.84-.4,3.54-.73,5.21-1.17.5-.13,1-.52,1.36-.91,1.83-1.98,3.71-3.94,5.41-6.04,1.68-2.08,1.62-2.19.2-4.39-.33-.52-.79-1.03-1.31-1.35-1.75-1.08-3.55-2.08-5.81-3.39ZM386.13,656.5c.2.05.39.11.59.16,2.63-5,5.27-10,7.86-15.01.24-.46.28-1.08.23-1.62-.47-5.81-.96-11.61-1.48-17.42-.04-.47-.3-.93-.46-1.39-.11.02-.21.03-.32.05-2.14,11.74-4.29,23.49-6.43,35.23ZM414.08,556.9c-1.89-2.59-3.56-5-5.38-7.29-1.11-1.4-2.85-1.05-3.5.65-1.28,3.35-2.53,6.7-3.69,10.09-.44,1.3-.6,2.69-1.01,4.6,4.81-2.85,9.09-5.39,13.58-8.04ZM437.8,450.63c-.23,2.65-.14,4.93-.68,7.05-.57,2.22-1.73,4.28-2.64,6.41-.03.07-.08.14-.1.22-.71,2.46-.39,4.92-.02,7.44,1.51-1.95,2.77-3.96,3.97-6,.58-.98,1.16-1.92,2.29-2.33,1.13-.42,1.5-1.3,1.59-2.41.23-2.71.51-5.41.76-8.11.05-.53,0-1.06,0-1.84-1.82-.15-3.45-.28-5.18-.43ZM688.42,528c-.04-.22-.09-.43-.13-.65-4.53-.95-9.06-1.91-13.94-2.94-.14,3.57-.26,6.78-.4,10.5,5.11-2.44,9.79-4.68,14.48-6.91ZM762.29,567.31c.2.11.39.21.59.32,1.7-1.79,3.37-3.62,5.12-5.37.78-.78,1.18-1.61,1.3-2.71.25-2.38.45-4.79,1.01-7.1.51-2.1-.27-3.34-2.15-4.45-.34,1.01-.68,1.96-.99,2.92-1.08,3.33-1.76,6.82-3.74,9.8-1.37,2.06-1.2,4.33-1.14,6.59ZM412.66,457.62c1.37,3.96,2.88,7.67,4.63,11.4,1.79-5.04,3.42-10.08,4.69-15.22-.15-.12-.3-.24-.46-.36-2.86,1.35-5.72,2.7-8.87,4.18ZM381.63,670.67c-2.52,2.78-8.09,13.64-8.36,15.36,2.37.13,4.72.23,7.17.12.41-5.36.8-10.42,1.19-15.48ZM405.81,594.43c.25,2.26-.05,4.65.85,6.43,1.36,2.69,3.57,4.94,5.98,7.53v-12.57c-2.18-.88-4.27-1.51-6.83-1.38ZM422.57,601.39c1.48.08,2.79.15,4.3.23v-11.81c-1.44.19-2.73.35-4.3.56v11.03ZM399.61,585.75c-1.28,1.76-2.33,3.2-3.37,4.63,2.84,3.64,6.22,6.96,7.92,7.61-.47-3.96-.93-7.78-1.39-11.61-1.27-.25-2.26-.45-3.16-.63ZM806.43,492.47c-.19-.06-.38-.11-.57-.17-1.24,1.53-2.35,3.2-3.76,4.57-2.77,2.69-2.04,6-2.06,9.25,1.05-1.14,1.66-2.62,2.75-3.51,1.18-.96,2.8-1.36,4.35-2.06-.25-2.78-.48-5.43-.71-8.08ZM620.77,462.03c-3.12-.94-6.25-1.89-9.68-2.92.19.96.26,1.5.41,2.01.56,1.89,1.14,3.76,1.69,5.55,5.41.74,5.94.45,7.66-4.04.02-.06-.02-.16-.08-.6ZM578.39,472.84c-.29-3.51-.8-6.89-1.43-10-2.02,2.01-3.96,3.93-5.96,5.92,1.83,1.98,3.56,4.5,7.39,4.08ZM453.57,454.99c-3.32-2.1-6.5-3.14-8.43-2.75v6.68c2.47-2.09,5.12.02,7.62-.92.26-.95.52-1.93.81-3.01ZM410.74,586.63c-.27,2.89.3,5.32,1.18,7.78,1.08.28,2.13.54,3.33.85.75-2.5,1.43-4.75,2.19-7.29-2.28-.46-4.35-.88-6.69-1.35ZM763.02,448.21c-2.65-.28-4.62-.53-6.59-.66-.57-.04-1.39.12-1.69.5-.97,1.22-1.75,2.59-2.74,4.11,1.74.5,3.17.96,4.62,1.31.4.1,1.03.05,1.3-.2,1.6-1.5,3.13-3.09,5.1-5.06ZM420.73,600.41v-10.19c-.72-.13-1.45-.26-2.18-.39-1.62,3.28-2.01,6.61-2.42,10.16,1.58.14,2.89.26,4.59.42ZM410.4,534.94c-.21-.05-.42-.1-.63-.15-1.34,3.93-2.69,7.87-3.99,11.68,1.78.56,3.3,1.04,4.99,1.57-.13-4.37-.26-8.73-.38-13.09ZM810.99,516.39c-.2-.05-.4-.1-.61-.15-1.6,1.83-3.2,3.66-4.92,5.63,2.01,1.73,3.84,3.3,6.24,4.99-.26-3.85-.49-7.16-.71-10.47ZM727.99,422.71c.6-2.37,1.37-4.49,1.39-7.02-2.19.56-4.02,1.02-5.85,1.49v4.86c1.6.24,2.98.45,4.46.67ZM405.34,591.94c1.61.28,2.97.52,4.71.83-.48-2.44-.89-4.5-1.3-6.57-1.4-.15-2.55-.27-4.05-.43.22,2.18.42,4.04.64,6.18ZM413.87,478.47c2.85-4.16,2.72-8.33,0-12.55v12.55ZM708.57,397.9c.65,1.07,1.25,2.1,1.88,3.1.11.17.33.27.5.4,2.82-3.73,2.78-5.45-.24-7.79-.71,1.43-1.41,2.84-2.13,4.29ZM643.58,380.69c-1.82,1.27-3.19,2.21-4.83,3.36,2.12,1.17,3.43,2.78,5.63,3.47-.26-2.26-.5-4.26-.79-6.83ZM751.75,479.62c.19-.05.38-.1.57-.14.38-1.47.76-2.94,1.27-4.93-1.57.63-2.62,1.06-3.92,1.58.77,1.3,1.43,2.39,2.08,3.49Z" style="fill:#000; stroke-width:0px;"/><path d="M597.83,0c-2.95.66-5.9,1.3-8.84,1.98-1.16.27-2.42.4-3.44.95-4.32,2.33-9.06,3.08-13.79,3.76-3.63.52-7.3.77-10.97,1.01-1.63.1-3.09.47-4.57,1.19-3.73,1.81-7.55,3.42-11.3,5.2-1.94.92-3.82,1.96-5.67,3.04-1.17.68-2.2,1.6-3.36,2.3-4.56,2.78-8.54,6.15-11.27,10.84-.61,1.04-1.53,1.6-2.65,1.9-2.76.73-5.12,2.17-7.33,3.92-2.76,2.18-5.69,4.16-8.32,6.49-2.02,1.79-3.74,3.93-5.45,6.04-1.3,1.6-2.75,2.81-4.75,3.43-6.27,1.94-11.74,5.26-16.68,9.59-2.76,2.42-5.73,4.6-8.68,6.8-.93.7-2.04,1.34-3.16,1.59-6.13,1.36-11.78,4.01-17.54,6.36-1.05.43-1.72,1.14-2.15,2.11-1.02,2.28-2.75,3.78-4.87,5.07-2.1,1.28-4.04,2.85-5.91,4.45-10.48,8.95-19.94,18.9-28.98,29.29-6.26,7.19-11.93,14.82-17.7,22.37-4.82,6.31-10.51,11.84-15.6,17.88-2.56,3.03-5.49,5.06-9.32,6.26-4.57,1.43-8.74,3.71-12.58,6.75-7.52,5.97-15.63,11.1-24.06,15.71-1.84,1.01-3.04,2.34-3.98,4.22-2.45,4.86-3.14,9.99-3,15.32.02.94.35,1.64.97,2.34,3.01,3.42,5.93,6.92,8.97,10.31.88.98,1.99,1.8,3.1,2.53,1.06.7,2.28,1.15,3.4,1.77,3.11,1.7,2.67.63,3.12,4.75-.32.26-.64.63-1.04.85-1.76.95-2.8,2.36-3.59,4.24-.99,2.36-3.07,3.79-5.64,4.29-1,.19-2.04.18-3.25.28,0,1.59-.05,3.08.01,4.57.05,1.27.28,2.54.33,3.82.18,4.2,4.32,7.11,8.38,5.93.84-.24,1.43-.57,1.73-1.42.23-.67.59-1.3.87-1.91,2.48-.22,2.62-.28,3.42,1.67,2.57,6.2,6.47,11.55,10.52,16.81.67.87,1.49,1.67,2.37,2.32,2.13,1.55,4.37,2.96,6.5,4.51,1.15.83,2.38,1.23,3.77,1.35,2.07.19,4.13.43,6.2.68,2.03.24,3.51-.6,3.87-2.51.77-4.07,1.31-8.18,2.14-12.24.36-1.77,1.17-3.45,1.84-5.14.12-.31.55-.62.89-.71,2-.56,4.04-1.2,6.12-.7.86.21,1.71.81,2.35,1.45,7.47,7.45,14.85,15,22.36,22.4,3.3,3.25,6.87,6.21,10.3,9.33,5.39,4.9,11.2,9.26,17.21,13.37,8.38,5.73,16.7,11.55,24.92,17.5,4.94,3.58,10.28,6.45,15.55,9.47.72.42,1.44.86,2.15,1.29-.05.15-.1.3-.15.45-2.59.17-5.19.26-7.76.54-4.61.49-9.18,1.26-13.54,2.92-5.14,1.96-10.45,3.53-15.18,6.47-3.24,2.02-5.69,4.84-7.93,7.86-3.2,4.31-3.77,9.4-4.14,14.52-.5,7.03-.16,14.05.44,21.07.55,6.53.98,13.07,1.38,19.61.05.82-.26,1.72-.6,2.49-.67,1.54-1.54,2.99-2.2,4.53-1.13,2.66-1.9,5.42-2.15,8.31-.08.93-.32,1.85-.5,2.81-2.21.39-4.26.68-6.28,1.13-2.4.54-4.83,1.06-7.14,1.89-4.59,1.63-9.32,3.04-13.59,5.31-4.2,2.23-7.98,5.31-11.8,8.21-3.31,2.51-6.36,5.34-9.62,7.92-7.13,5.64-13.22,12.21-18.79,19.39-6.08,7.83-12.03,15.65-17.05,24.28-8.64,14.87-15.32,30.49-20.85,46.73-3.18,9.35-5.02,18.98-7.09,28.57-1.38,6.4-2.8,12.8-3.96,19.24-.68,3.76-.94,7.6-1.27,11.41-1.35,15.87-1.5,31.75-1.26,47.67.15,9.73,1.08,19.26,3.29,28.7.96,4.1,1.68,8.26,2.53,12.49-2.68.78-5.05.08-7.41-.55-1.21,1.49-2.46,2.84-3.47,4.35-.54.82-.79,1.89-.95,2.89-.36,2.21-.58,4.44-2.24,6.25-3.86.58-6.72-1.58-8.8-4.24-2.94-3.78-6.73-6.29-10.57-8.88-1.24-.83-2.48-1.25-4-1.28-10.63-.23-21.26-.54-31.89-.82-.48-.01-.95-.07-1.5-.11-.19-.44-.49-.86-.54-1.3-.22-2.15-1.67-3.15-3.46-3.85-.52-.2-1.06-.4-1.6-.48-1.79-.28-2.58-1.38-2.71-3.38,1.14-.6,2.41-1.23,3.64-1.92.95-.54,2.3-.95,2.69-1.78.73-1.54,1.01-3.33,1.22-5.05.12-.98-.27-2.03-.41-2.93-1.48-1.23-4.37-.07-4.35-3.2-1.23-.24-2.39-.46-3.65-.71-.17-.48-.41-.98-.54-1.51-.65-2.65-.59-2.59,1.73-4.34,1.14-.86,2.11-1.96,3.03-3.05.68-.8.02-3.37-1.03-4.34-2.63-2.44-5.18-5-7.96-7.26-3.36-2.73-7.02-4.94-11.57-5.2-2.21-.13-4.41-.61-6.6-.94-.23-.6-.5-1.03-.54-1.48-.25-2.59-1.83-4.13-4-5.23-3.25-1.65-5.97-3.96-8.41-6.65-.53-.59-1.15-1.12-1.78-1.6-5.28-4.02-10.55-8.05-15.87-12.01-1-.75-2.18-1.33-3.37-1.74-13.59-4.68-27.18-9.36-40.81-13.92-1.94-.65-3.23-1.52-3.59-3.59-.4-2.33-1.77-3.95-3.65-5.37-6.19-4.67-12.26-9.49-18.43-14.19-1.18-.9-2.15-1.85-2.63-3.28-2.35-7.02-6.31-13.01-11.6-18.18-1.94-1.89-3.66-4.02-5.42-6.09-.72-.85-1.55-1.29-2.65-1.38-4.22-.37-8.43-.8-12.65-1.2-7.96-.75-15.91-1.5-23.87-2.24-7.48-.7-14.96-1.38-22.44-2.08-7.88-.74-15.75-1.49-23.63-2.23-2.22-.21-4.44-.39-6.53-.56-.2.12-.28.15-.33.2-.05.06-.1.14-.11.21-.06.71-.15,1.43-.16,2.14-.08,39.26-.15,78.51-.21,117.77,0,.22.15.44.26.76,3.42-.34,6.83-.67,10.23-1.02,8.66-.9,17.33-1.82,25.99-2.74,3.81-.4,7.62-.87,11.44-1.23,1.67-.16,3.35-.16,5.02-.18.96-.01,1.88.07,2.61.92.31.36.96.47,1.48.59.93.21,1.87.34,2.82.5.55,1.79.43,3.27-.82,4.74-.86,1.01-1.74,1.41-3.03,1.52-8.36.69-16.72,1.45-25.07,2.22-7.32.67-14.64,1.38-21.96,2.09-2.85.28-5.7.59-8.61.9v130.77h1132.07c.53-1.71.68-33.91.15-36.99-2.36-.35-4.79-.73-7.22-1.05-14.89-1.98-29.78-3.93-44.66-5.93-12.51-1.67-25.03-3.28-37.51-5.13-8.05-1.19-16.11-2.51-24.06-4.22-6.31-1.36-12.49-3.34-18.68-5.21-1.87-.57-3.5-.49-5.3.16-4.5,1.64-9.04,3.17-13.6,4.64-1.01.33-2.19.44-3.25.3-12.59-1.7-25.16-3.47-37.74-5.22-1.66-.23-3.31-.45-5.36-.73.68-.52,1.04-.9,1.48-1.13,6.01-3.15,11.99-6.39,18.09-9.37,2.56-1.25,5.38-1.99,8.12-2.84,2.31-.72,3.79-2.19,3.98-4.55.26-3.13,1.79-5.3,4.23-7.1,1.47-1.09,2.72-2.48,4.17-3.61,1.19-.92,1.81-1.92,1.5-3.46-.14-.68-.02-1.41-.02-2.29,3.43-1.09,6.84-2.17,10.25-3.26q3.53-1.12,4.4-4.72c.17-.69.24-1.41.29-2.13.23-3.89,0-2.96,3.26-4.34,1.03-.44,2.07-.87,3.15-1.16,2.27-.6,3.56-2.23,4.05-4.31.5-2.12,1.39-3.49,3.82-3.4.97-3.64,1.9-7.17,2.84-10.71.44-.1.75-.26,1.04-.22,4.49.6,5.58-3.18,7.49-5.85.21-.3.06-.92-.04-1.37-.76-3.6.47-6.78,2.11-9.84.28-.52,1.09-.81,1.72-1.06.93-.38,2.3-.35,2.8-1.01,1.07-1.43,2.28-2.93,2.32-4.89.03-1.6-.08-3.2.04-4.79.07-1,.4-1.99.72-2.96.38-1.16,1.19-1.8,2.47-1.93,1.6-.15,2.8-.94,3.61-2.39.82-1.45,1.98-2.73,2.65-4.24,1.1-2.46,1.33-5.03.29-7.66-.69-1.75-.58-3.58.06-5.48.77-.15,1.55-.26,2.31-.45,2.63-.67,4.71-3.88,4.38-6.54-.12-.98.09-1.99.17-3.34,1.73.88,2.55.12,3.33-1.02,1.48-2.16,1.49-4.22-.23-6.23-.59-.68-.84-1.32-.51-2.16.09-.22.22-.44.25-.67.31-2.3,1.55-3.55,3.94-3.56,1.86-.01,2.72-1.16,3.37-2.79,1.38-3.48,1.5-3.63,1.34-6.51-.67-.48-1.37-.98-2.18-1.57.65-2.49,1.23-4.97,1.97-7.4.18-.58.79-1.3,1.34-1.46,2.87-.84,3.96-3.3,5.27-5.54.47-.8.61-1.8.93-2.82-.37-.3-.69-.63-1.08-.87-2.35-1.5-3.03-2.99-2.58-5.74.09-.55.21-1.1.35-1.64,1.05-4.15-.01-3.42,4-4.7.54-.17,1.2-.64,1.38-1.13,1.04-2.74,2.39-5.47,1.33-8.73-.67-.24-1.47-.53-2.55-.93.54-2.37.96-4.79,1.7-7.12.25-.78,1.31-1.31,1.88-1.84.47-2.95.93-5.85,1.41-8.74.17-1.06.57-1.99,1.56-2.57.92-.54,1.3-1.34,1.26-2.4-.02-.56.05-1.12.11-1.67q.27-2.59-2.48-3.58c.16-2.04.32-4.15.49-6.43,2.15-.02,2.74-1.63,3.35-3.2.81-2.07,1.59-4.16,2.47-6.5-1.63-.4-3.05-.75-4.54-1.12.43-1.99.86-3.83,1.22-5.69.2-1.02.16-2.09.44-3.08.25-.87.57-1.99,1.24-2.44,2.55-1.69,2.29-4.12,2.17-6.67-.69-.27-1.34-.52-2.12-.82-.18-3.53-.36-7.01-.55-10.54,1.23-.33,2.23-.59,3.56-.94.19-3.05.1-6.19.03-9.45-.99-.2-1.82-.37-2.79-.56v-8.66c.71-.28,1.43-.58,2.34-.94.11-1.7.23-3.44.34-5.08-3.07-1.87-3.09-1.91-3.69-6.89.97-.21,1.95-.41,3.22-.68-.09-1.76-.24-3.48-.26-5.21-.02-1.43-1.39-1.34-2.27-2.16.7-4.52,1.42-9.15,2.14-13.76-.41-.18-.61-.34-.83-.36-3.63-.27-3.42.1-3.64-3.72-.07-1.2-.17-2.39-.34-3.58-.24-1.74-.26-3.38,1.72-4.36-.32-1.69-.55-3.35-.98-4.95-.17-.64-.65-1.35-1.19-1.7-1.92-1.23-2.15-2.84-1.76-4.95.62-3.4.5-6.85-.2-10.24-.16-.81-.65-1.55-1.02-2.31-.44-.91-1.17-1.77-1.31-2.72-.81-5.65-2.74-10.92-4.67-16.28-4.05-11.22-8.89-22.08-13.7-32.96-1.84-4.16-4.1-8.13-6.21-12.16-3.04-5.8-5.72-11.85-9.29-17.31-3.57-5.46-7.88-10.48-12.17-15.43-8.95-10.33-18.13-20.46-27.14-30.75-3.4-3.88-7.19-7.22-11.55-9.99-3.91-2.49-7.73-5.13-11.46-7.87-5.31-3.9-11.08-6.88-17.05-9.65-13.96-6.46-28.42-11.47-43.23-15.53-5-1.37-10.14-2.23-15.37-2.16-1.6.02-3.2-.06-4.8.02-3.3.15-6.54-.16-9.7-1.16-.08-.02-.16-.03-.23-.05-2.61-.62-5.24-1.34-7.07,1.6-1.36-.93-2.43-2.12-3.7-2.42-1.31-.31-2.82.25-4.38.44-.15.73-.29,1.4-.45,2.14-.16.09-.34.26-.56.31-1.09.25-2.2.42-3.28.7-1.41.37-2.63.38-3.56-1.04-.25-.39-.92-.57-1.44-.7-1.3-.33-2.63-.57-4.04-.87-.38,1.15-.72,2.18-1.16,3.52-3.37-2.82-6.7-1.64-10.06-.42-.08.22-.19.44-.23.67-.35,2.22-1.52,3.34-3.77,3.28-.6-.01-1.34-.52-1.75-1.02-.98-1.19-2.15-1.56-3.61-1.33-.47.07-.96.08-1.44.05-1.89-.13-3.49.23-4.27,2.24-.38.97-1.22,1.11-2.17,1.1-2.15-.04-4.3-.01-6.4-.01-.23.44-.38.72-.51,1.01-.45,1-.61,2.4-1.38,2.91-1.55,1.04-3.26,2.01-5.32,1.89-1.43-.09-2.87-.02-4.43-.02-.59,1.66-1.88,2.5-3.54,2.75-3.43.52-5.89,2.17-6.89,5.65-.34,1.19-1.35,1.72-2.37,2.23-.85.42-1.68.89-2.6,1.37-1.2-.71-2.48-1.26-3.51-2.11-2.09-1.74-3.8-3.52-3.38-6.81.68-5.36.55-5.26,4.5-8.76,4-3.55,7.75-7.38,11.58-11.12.5-.49.86-1.15,1.23-1.76,1.04-1.71,1.95-3.5,3.08-5.14,3.52-5.14,5.94-10.74,7.19-16.84.24-1.16.49-2.36.49-3.54.03-15.11.04-30.22,0-45.33,0-1.25-.29-2.53-.62-3.75-.46-1.69-1.17-3.32-1.62-5.01-1.21-4.62-3.47-8.75-5.97-12.75-.53-.84-1.33-1.58-2.16-2.14-3.65-2.45-7.39-4.77-11.03-7.22-1.11-.75-2.04-1.75-3.04-2.66-.23-.21-.4-.5-.62-.73-7.06-7.71-12.8-16.34-17.84-25.46-.54-.97-1.03-2-1.32-3.06-1.31-4.69-2.6-9.39-3.77-14.12-.29-1.18-.77-1.85-1.95-2.05-.47-.08-.92-.31-1.39-.35-3.38-.29-5.83-2.07-7.48-4.9-.87-1.49-1.56-3.14-2-4.81-.46-1.71-1.35-2.68-2.98-3.37-8.01-3.4-15.98-6.92-23.97-10.38-.65-.28-1.34-.57-2.04-.65-6.03-.72-12.05-1.79-18.1-1.98-5.79-.18-11.65.07-17.25,2.11-1.31.48-2.81.77-4.19.7-7.66-.41-15.31-.96-22.96-1.47-6.94-.46-13.87-1.02-20.81-1.33-3.01-.13-5.74-.74-8.49-2.06-6.05-2.92-12.48-4.94-18.98-6.58-2.68-.68-5.55-.64-8.32-.97-.93-.11-1.85-.34-2.78-.52,178.48,0,356.97,0,535.45,0v787.68H0C0,525.12,0,262.56,0,0c199.28,0,398.55,0,597.83,0Z" style="fill:#fff; stroke-width:0px;"/><path d="M565.86,123.51c.96,2.06,2.16,3.83,4.64,4.02,2.4.18,2.73,1.92,3.17,3.78.45,1.88-.51,3.06-1.66,4.18-.56.55-1.29.94-2,1.31-2.14,1.12-3.48,3.05-4.85,4.9-.52.71-.71,1.79-.73,2.71-.05,3.35-.04,6.71.11,10.05.07,1.47-.07,2.82-.55,4.21-1.18,3.44-2.75,6.64-5.37,9.23-1.68,1.66-2.87,3.61-3.69,5.82-.31.82-.63,1.66-1.09,2.4-2.18,3.55-4.06,7.22-4.76,11.4-.1.59-.54,1.14-.9,1.67-.8,1.2-1.69,2.33-2.45,3.55-1.57,2.54-2.67,5.2-2.53,8.32.22,4.71.27,9.42.39,14.26-.75.39-1.41.85-2.15,1.09-2.39.81-4.05,2.38-5.38,4.49-1.19,1.89-2.67,3.6-3.86,5.49-.66,1.05-1.24,2.27-1.4,3.48-.54,4.14-1.69,8.11-2.75,12.13-1.15,4.38-1.22,8.85.66,13.12.74,1.67.95,3.28.65,5.09-.51,3.15-.77,6.34-1.15,9.52-.09.7-.26,1.39-.38,2-1.1.33-2.24.4-2.99.97-1.01.76-1.5,1.93-1.49,3.36.04,3.68-.09,7.35-.17,11.03-.02,1.03-.09,1.92-1.08,2.73-.64.53-.82,1.83-.88,2.8-.27,4.39-.41,8.78-.61,13.17-.04.86-.08,1.72-.13,2.71-2.89.12-5.55.13-8.1-.67-1.07-3.31-.39-4.9,2.67-6.14,1.26-.51,2.26-1.04,2.17-2.67-.05-.82-.27-1.35-.96-1.76-2.82-1.66-5.5-3.66-8.5-4.88-1.59-.64-3.72.03-5.61.18-.46.04-.93.27-1.33.51-3.1,1.88-6.43,1.75-9.74.96-3.21-.76-6.23-2.05-8.43-4.7-.6-.72-1.27-1.21-2.25-1.1-1.14.13-1.8-.56-2.29-1.42-1.26-2.22-3.27-3.42-5.57-4.28-1.94-.73-3.84-1.56-5.79-2.36-.82.61-.66,1.96-2.01,2.19-1.35.23-2.59.48-3.97.03-7.23-2.32-14.32-4.93-20.99-8.67-2.76-1.55-5.91-2.38-8.86-3.58-3.43-1.39-6.62-3.23-9.33-5.73-2.42-2.24-4.96-4.24-7.83-5.88-1.59-.91-3.09-1.99-4.52-3.14-4.13-3.29-8.16-6.69-12.32-9.94-1.27-.99-1.84-2.08-1.74-3.65.07-1.19.01-2.39.01-3.54-1.9-1.48-4.03-1.84-6.17-2.01-1.43-.11-2.37-.63-2.91-1.99-.94-2.35-2.54-4.23-4.45-5.85-.43-.36-.84-.75-1.19-1.18-1.2-1.48-1.1-2.89.27-4.17.29-.27.58-.6.93-.75,2.6-1.13,3.48-3.42,3.87-5.92.72-4.57,1.6-9.12,1.34-13.8-.17-3.02.61-5.78,2.5-8.3,1.5-1.99,2.15-4.44,2.44-6.93.37-3.15,1.62-5.98,3.09-8.75,2.24-4.22,5.18-7.79,8.89-10.84,2.3-1.89,4.6-3.68,7.27-4.99,1.43-.7,2.83-1.51,4.13-2.41,2.97-2.06,6.04-3.91,9.53-4.91,1.19-.34,1.84-1.12,2.45-2.11,1.36-2.25,2.72-4.51,4.28-6.62.61-.83,1.69-1.49,2.69-1.83,4.29-1.46,8.12-3.59,11.63-6.49,4.37-3.61,8.95-6.98,13.5-10.37,1.44-1.08,2.63-2.28,3.44-3.9.61-1.21,1.2-2.49,2.07-3.5,1.44-1.67,2.9-3.49,4.73-4.63,2.6-1.62,5.11-3.32,7.23-5.48,3.34-3.42,7.27-5.97,11.35-8.35,1.45-.85,2.93-1.64,4.34-2.55,3.32-2.15,6.85-3.71,10.79-4.39,1.13-.2,2.25-.79,3.25-1.41,4.55-2.82,9.05-5.72,13.59-8.56.74-.46,1.55-.86,2.38-1.12,2.95-.89,5.2-2.68,7.02-5.12,1.15-1.55,2.84-2.43,4.68-2.61,1.8-.18,3.66.1,5.49.26.41.04.97.32,1.16.66,1.52,2.65,2.97,5.24,1.2,8.49-1.16,2.13-1.3,4.57-.41,6.97.73,1.97,1.7,2.57,3.78,2.41,2.31-.17,4.63-.27,6.94-.32,3.41-.07,6.23,1.35,8.46,3.8,1.06,1.16,2.2,1.67,3.72,1.77,2.38.15,4.76.39,7.13.66,2.59.29,3.9,1.92,4.4,4.35.24,1.17.51,2.33.78,3.54,1,.27,1.92.49,2.83.77,1.85.58,2.89,1.89,2.91,3.59.02,1.91-.57,2.67-2.44,3.29-1.59.52-3.13,1.19-4.73,1.65-1.06.31-2.2.54-3.29.5-3.41-.11-5.36,1.56-6.24,4.68Z" style="fill:#fff; stroke-width:0px;"/><path d="M488.62,691.45c.61-2.31,1.08-4.31,1.68-6.28.14-.47.67-.86,1.09-1.2.74-.6,1.51-1.19,2.32-1.69,2.36-1.45,3.58-3.42,3.66-6.28.09-3.25.24-3.24,3.65-4.2.27-1.47.51-3.04.86-4.58.15-.67.35-1.65.82-1.88,2.39-1.15,2.07-3.42,2.32-5.37.14-1.09.36-1.93,1.13-2.75.97-1.04,1.87-2.19,2.57-3.43.48-.85.7-1.92.76-2.91.11-1.98.03-3.97.03-6.16,3.24-.3,3.43-2.69,3.8-5.02.24-1.49.74-2.95.98-4.44.15-.9.2-1.89,0-2.77-.58-2.53.29-4.5,2.64-5.57.36-.16.71-.35,1.12-.55.7-1.73.55-3.24-1.02-4.46-.8-.62-.86-1.34-.55-2.33.52-1.67,1.23-3.1,2.87-3.91,1.54-.75,2.11-2.02,2.1-3.7,0-1.19.17-2.39.34-3.58.24-1.69.23-3.35-.47-4.94-.48-1.09-.36-2.12-.05-3.26.83-3,1.25-6.02,1.18-9.2-.05-2.72.78-5.52,1.54-8.19.68-2.36,1.34-4.58.13-6.96-.25-.48-.11-1.25.06-1.83.54-1.84,1.08-3.69,1.81-5.45.5-1.2.57-2.28,0-3.41-.74-1.49-.7-3.06-.59-4.68.17-2.46.18-4.94.26-7.41.04-1.43-.1-2.9.16-4.29.45-2.41.3-4.75-.08-7.13-.78-4.88-1.51-9.79-2.06-14.68-.74-6.48-.54-13.07-.74-19.62-.04-1.38.5-2.19,1.91-2.59,3.61-1.01,7.16-2.24,10.79-3.19,1.68-.44,3.47-.46,5.22-.59,5.62-.44,11.02-1.72,16.17-4.07,4.23-1.93,8.8-2.23,13.35-2.45,1.25-.06,2.51.28,3.91.46.08.93.19,1.71.2,2.49.05,2.91,1.25,5.32,2.84,7.72,2.69,4.06,6.6,5.77,11.12,6.72,6.13,1.29,12.33,1.72,18.57,1.92,5.83.19,11.65.36,17.46.55.53,1.86.32,6.48-.42,8.86-1.26.14-2.59.29-4.03.45-.05.78-.1,1.47-.15,2.32,1.34.39,2.61.77,4.11,1.21-.24,2.57-.47,5.09-.71,7.68-1.12.45-2.14.85-3.36,1.34.09,1.34.11,2.68.3,4.01.08.58.38,1.31.83,1.63,1.61,1.17,2.09,2.71,1.94,4.58-.06.71,0,1.42,0,2.28-.94.33-1.88.66-2.8.98-.15,1.36.73,1.69,1.64,2.09,1.94.85,1.95.88,1.74,3.03-.23,2.38-.49,4.76-.76,7.14-.16,1.41-.52,2.7-2.5,2.79.19,2.17.37,4.22.55,6.29,1.33.33,2.48.61,3.9.97-.21,2.45.81,4.96-.59,7.39-.14.24-.21.65-.1.89.67,1.42,1.24,2.95,2.16,4.19,1.08,1.45,1.24,4.26,0,5.62-1.24,1.35-1.1,4.03.22,5.26.87.81,1.75,1.62,2.48,2.55.93,1.18,1.19,2.5.85,4.05-.44,1.99-.2,4.01.82,5.81,1.11,1.97,1.28,3.81.04,5.83-1.61,2.64-1.63,5.24.09,8.04,1.12,1.82,2.18,3.06,4.43,2.79.22-.03.46.1.95.23v10.35c.91.32,1.58.56,2.37.84.22,3.35.48,6.68.64,10.02.08,1.65.46,3.14,1.56,4.42.87.09,1.73.19,2.77.3v8.35c1.54.24,2.92.45,4.43.68v12.81c2.51.55,1.85,2.98,2.64,4.67,1.51.26,2.99.52,4.71.82.06,1.72.22,3.38.16,5.03-.05,1.41.34,2.49,1.53,3.26.2.13.34.34.54.47,2.15,1.35,2.6,3.24,1.73,5.88-25.86-.64-51.79-1.28-77.84-1.93-1.21,2.7-2.52,5.19-2.15,8.24.5,4.12.61,8.27,1.86,12.29.41,1.31.98,2.3,2.11,3.03.8.52,1.5,1.21,2.32,1.69,2.13,1.25,3.14,3.29,4.08,5.43-1.56,1.63-3.28,2.48-5.57,2.28-3.1-.28-6.22-.27-9.33-.51-.71-.06-1.53-.48-2.05-.98-1.15-1.09-2.26-2.27-3.2-3.55-5.52-7.54-10.89-15.21-16.54-22.66-1.86-2.45-4.37-4.42-6.67-6.5-.44-.4-1.34-.43-2.01-.41-4.15.14-8.31.34-12.46.54-13.65.65-27.31,1.32-40.96,1.97-.55.03-1.09,0-2.15,0Z" style="fill:#fff; stroke-width:0px;"/><path d="M834.82,498.77c.83.13,1.38.17,1.9.31,7.96,2.06,15.91,4.17,23.89,6.17,1.51.38,2.49,1.13,3.34,2.42,24.79,37.36,49.62,74.69,74.43,112.03.39.59.74,1.21,1.17,1.93-9.36,13.27-19.94,25.37-32.3,36.16-.56-.69-1.03-1.2-1.42-1.76-24.92-35.34-49.82-70.68-74.77-106-.89-1.26-1.22-2.49-1.06-4,.92-8.74,1.79-17.48,2.66-26.23.56-5.56,1.1-11.13,1.66-16.69.13-1.34.31-2.68.5-4.31Z" style="fill:#fff; stroke-width:0px;"/><path d="M804.44,524.49c2.59,2.45,4.61,4.28,6.5,6.21.51.52.83,1.35.94,2.09,1.3,8.53,2.55,17.06,3.79,25.6,1.36,9.33,2.61,18.67,4.09,27.98.41,2.55-.06,4.93-.45,7.35-4.07,25.23-8.16,50.46-12.24,75.69-.97,5.99-1.94,11.98-2.92,17.97-.06.38-.22.74-.37,1.23h-35.34c-.06-.75-.16-1.37-.14-1.98.43-14.94.87-29.88,1.31-44.82.33-11.27.7-22.53.99-33.8.08-3.15.64-6.15,1.6-9.15,6.2-19.31,12.33-38.65,18.45-57.99.44-1.4,1.08-2.59,2.14-3.66,3.43-3.46,6.8-6.99,10.15-10.53.54-.57.91-1.32,1.49-2.2Z" style="fill:#fff; stroke-width:0px;"/><path d="M857.95,481.71c-1.32-3.39-.94-7.22-3.76-9.88.42-.7.69-1.26,1.06-1.76,4.42-5.97,8.87-11.93,13.28-17.91.74-1.01,1.57-1.61,2.87-1.88,19.62-4.06,39.23-8.2,58.84-12.31,19.54-4.09,39.07-8.17,58.61-12.25,1.01-.21,2.03-.4,3.36-.67.13.98.32,1.89.36,2.8.49,11.27.6,22.53-.12,33.79-.21,3.27-.45,6.54-.69,9.8-.07.95-.23,1.88-.38,3.08-44.52,2.4-88.94,4.79-133.44,7.19Z" style="fill:#fff; stroke-width:0px;"/><path d="M951.44,299.38c8.14,11.28,14.71,23.36,20.29,36.22-.57.65-1.12,1.32-1.7,1.95-18.15,19.58-36.31,39.16-54.44,58.75-1,1.09-2.1,1.86-3.52,2.34-19.05,6.46-38.09,12.97-57.13,19.45-.67.23-1.34.42-2.12.66.72-1.71,95.56-116.47,98.63-119.37Z" style="fill:#fff; stroke-width:0px;"/><path d="M981.49,528.32c-3.7-.78-7.12-1.49-10.55-2.22-25.75-5.54-51.51-11.08-77.26-16.62-5.46-1.18-10.92-2.37-16.39-3.5-1.54-.32-2.78-.96-3.91-2.08-4.61-4.55-9.19-9.14-14-13.46-2.16-1.94-2.53-3.83-1.29-6.55,44.1-1.81,88.31-3.62,132.92-5.45-1.85,16.98-5.25,33.32-9.52,49.88Z" style="fill:#fff; stroke-width:0px;"/><path d="M985.06,376.09c3.8,15.41,6.03,30.92,7.19,46.56-1.8.9-117.46,24.79-120.09,24.78.6-.73,1.06-1.35,1.57-1.91,13.53-14.82,27.08-29.62,40.59-44.46.95-1.04,2.01-1.71,3.35-2.17,21.7-7.35,43.39-14.74,65.09-22.11.67-.23,1.35-.4,2.3-.69Z" style="fill:#fff; stroke-width:0px;"/><path d="M848.72,405.88c.19-1.88.36-3.77.58-5.65,2.05-17.53,4.1-35.05,6.17-52.58,1.07-9.04,2.17-18.08,3.24-27.12.22-1.86.84-3.52,1.8-5.14,11.36-19.17,22.67-38.37,34-57.56.44-.75.93-1.46,1.5-2.36,10.49,3.48,19.83,8.82,28.69,15.65-25.17,45.03-50.28,89.96-75.39,134.88-.2-.04-.4-.09-.6-.13Z" style="fill:#fff; stroke-width:0px;"/><path d="M579.09,365.4c0-1.12,0-2.15,0-3.18,0-4.8.04-9.59-.02-14.39-.02-1.29.34-2.25,1.29-3.16,2.6-2.49,5.13-5.05,7.64-7.62.82-.85,1.67-1.41,2.9-1.39.79.01,1.6-.33,2.38-.26,2.82.23,4.86-1.07,6.7-3.01,1.1-1.16,2.33-2.2,3.56-3.21.81-.67,1.15-1.43,1.13-2.48-.04-2.72.02-5.44-.03-8.15-.02-1.32.26-2.49.94-3.64,2.58-4.42,5.06-8.89,7.65-13.29.46-.79,1.15-1.57,1.93-2.02,5.54-3.18,11.13-6.28,16.71-9.4.32-.18.68-.27,1.55-.6-.72,1.49-1.23,2.53-1.73,3.57-1.43,2.94-3.4,5.76-4.14,8.87-.72,3.03-.28,6.36-.2,9.55.06,2.36-.26,4.59-1.15,6.78-.84,2.07-1.44,4.23-2.27,6.31-1.66,4.18-2.65,8.53-3.29,12.97-.13.88.07,1.91.41,2.74.98,2.36,2.17,4.63,3.17,6.98.5,1.2,1.31,1.84,2.46,2.38,8.57,4.05,17.58,6.78,26.76,8.92,3.17.74,4.82,2.04,5.05,5.35.16,2.18.87,4.32,1.4,6.79-4.07-.31-7.79-.46-11.48-1.13-5.02-.9-10.07-1.69-15.11-2.5-.53-.09-1.09-.01-1.79-.01-.04,2.07.24,3.74,2.43,4.66,1.6.68,3.07,1.69,4.88,2.71-1.8,1.91-4.01,3.05-5.91,4.79.38,1.39.77,2.8,1.29,4.68-18.57-6.28-36.76-12.42-55.11-18.62Z" style="fill:#fff; stroke-width:0px;"/><path d="M828.25,554.04c.56.58.79.78.96,1.02.28.39.5.82.78,1.2,4.64,6.34,7.31,13.49,9.51,21,9.99,34.18,20.24,68.29,30.39,102.42.2.69.37,1.38.62,2.32-4.53,2.49-9.33,4.31-14.48,6.17-1.63-8.95-2.62-17.79-4.18-26.8-2.6.47-4.99.91-7.71,1.4,1.75,7.46,3.45,14.72,5.24,22.32-5.29-.33-10.28-1.11-15.36-1.83-.55-4.8-1.09-9.4-1.61-13.99-1.07-9.36-2.13-18.73-3.2-28.09-.98-8.65-1.98-17.3-2.95-25.95-1.05-9.37-2.08-18.74-3.11-28.11-.07-.63-.14-1.28-.04-1.9,1.67-10.24,3.37-20.48,5.15-31.19Z" style="fill:#fff; stroke-width:0px;"/><path d="M816.99,382.37c.22-1.79.41-3.59.67-5.38,2.05-14.54,4.1-29.09,6.17-43.63,2.17-15.25,4.35-30.5,6.51-45.76,1.35-9.56,2.7-19.13,3.99-28.7.2-1.49.66-2.37,2.28-2.84,7.84-2.31,15.81-3.88,23.94-4.64.93-.09,1.88-.01,3.1-.01-.2,2.81-.37,5.49-.59,8.16-.58,7.08-1.19,14.16-1.78,21.25-.85,10.27-1.69,20.53-2.54,30.8-.12,1.45-.52,2.77-1.29,4.05-12.95,21.66-25.86,43.35-38.78,65.03-.36.61-.76,1.19-1.14,1.78-.18-.03-.36-.06-.55-.1Z" style="fill:#fff; stroke-width:0px;"/><path d="M845.1,419.29c27.38-48.86,54.62-97.45,81.99-146.27,8.55,7.07,15.78,14.88,22.29,23.54-.66.84-1.19,1.52-1.74,2.19-32.02,39.37-64.06,78.72-96.01,118.14-1.74,2.14-3.53,2.97-6.53,2.4Z" style="fill:#fff; stroke-width:0px;"/><path d="M805.98,269.78c.19,40.51.38,80.43.56,120.74-1.94-.69-3.53-1.47-5.21-1.81-4.29-.86-6.65-3.48-8.56-7.36-4.88-9.88-10.2-19.53-15.38-29.25-.73-1.37-1.11-2.74-1.11-4.32.04-18.05.05-36.11-.01-54.16,0-1.68.51-2.79,1.78-3.87,7.99-6.79,16.36-13.05,25.32-18.5.72-.44,1.47-.83,2.61-1.48Z" style="fill:#fff; stroke-width:0px;"/><path d="M867.64,505.88c1.34.38,2.66.81,4.02,1.12,2.79.64,5.08,2.06,7.29,3.88,27.42,22.5,54.9,44.94,82.35,67.39.61.5,1.19,1.03,1.73,1.5-1.76,6.35-17.03,33.74-20.99,37.58-24.91-37.04-49.8-74.04-74.68-111.04.09-.14.19-.28.28-.43Z" style="fill:#fff; stroke-width:0px;"/><path d="M694.84,639.41c-.81-1.42-1.25-2.15-1.65-2.9-5.18-9.79-8.96-20.12-11.93-30.77-.38-1.38-.14-2.36.74-3.48,8.92-11.39,17.8-22.81,26.62-34.28.99-1.28,1.9-1.84,3.39-1.08.14.07.32.05.47.11,7.61,2.94,15.5,3.46,23.55,2.84,1.16-.09,2.14-.36,3.12-.98,5.19-3.32,10.15-6.92,14.97-10.77,3.1-2.47,6.71-4.28,10.11-6.38.1-.06.29.02.65.07-.2.68-.35,1.35-.59,1.98-1.87,4.76-3.73,9.52-5.68,14.24-.41,1.01-1.04,1.98-1.78,2.79-20.13,22.11-40.28,44.19-60.41,66.29-.53.58-.9,1.31-1.57,2.3Z" style="fill:#fff; stroke-width:0px;"/><path d="M487.15,332.33c-.43,5.15-1.43,9.73-2.77,14.25-2.64,8.87-5.19,17.77-7.91,26.62-1.62,5.26-3.46,10.46-5.27,15.66-.28.79-.9,1.49-1.45,2.14-2.75,3.26-6.23,5.71-9.53,8.37-3.72,3-7.73,5.7-10.67,9.57-.18.23-.47.37-.69.53-.15-.1-.25-.12-.28-.18-1.28-3.01-3.65-4.92-6.38-6.52-2.68-1.58-3.84-4.41-5.44-6.87-.31-.48-.24-1.23-.29-1.86-.85-10.53-.64-21.07-.47-31.61.06-3.58.92-6.94,1.69-10.36.12-.53.41-1.04.69-1.52,2.32-3.84,5.39-6.91,9.48-8.83,3.97-1.87,7.93-3.79,12.01-5.38,6.98-2.71,14.27-3.98,21.77-4.01,1.74,0,3.48,0,5.49,0Z" style="fill:#fff; stroke-width:0px;"/><path d="M628.91,407.14c-2.87,15.38-5.69,30.51-8.51,45.6-3.19,0-6.13.05-9.08-.01-3.92-.08-7.83-.21-11.74-.42-.89-.05-1.97-.31-2.6-.87-5.95-5.33-11.82-10.76-17.85-16.28,1.24-4.05,2.48-8.07,3.78-12.33-1.72-.54-3.35-1.15-5.03-1.56-1.8-.44-3.02-1.41-4.18-2.88-1.74-2.21-2.41-4.33-1.91-7.23,1.25-7.24,2.08-14.55,3.1-21.83.1-.7.31-1.38.52-2.33,17.81,6.71,35.48,13.36,53.49,20.15Z" style="fill:#fff; stroke-width:0px;"/><path d="M769.12,566.39v2.11c0,10.07.02,20.13-.03,30.2,0,1.25-.21,2.56-.62,3.74-9.01,26.36-18.06,52.7-27.11,79.05-.23.67-.5,1.33-.87,2.27-9.09-4.52-17.21-10.17-24.63-17.08.36-.88.66-1.69,1.02-2.47,12.48-27.04,24.95-54.08,37.47-81.1.56-1.21,1.34-2.36,2.21-3.38,3.43-4,6.94-7.94,10.42-11.9.51-.58,1.06-1.12,1.59-1.68.18.08.36.16.54.24Z" style="fill:#fff; stroke-width:0px;"/><path d="M881.66,509.36c32.87,7.35,65.75,14.69,98.93,22.11-4.13,15.29-9.23,29.97-15.65,44.62-28.04-22.22-55.79-44.21-83.54-66.19.08-.18.17-.36.25-.54Z" style="fill:#fff; stroke-width:0px;"/><path d="M903.8,660.68c-9.27,7.7-19.12,14.26-30.08,19.87-11.38-37-22.7-73.8-34.09-110.85,1.65,1.27,60.88,85.36,64.18,90.98Z" style="fill:#fff; stroke-width:0px;"/><path d="M833.14,257.59c-6.89,45.46-13.74,90.74-20.64,136.26-2.37-1.24-3.59-2.51-3.62-5.23-.28-36.61-.69-73.21-1.08-109.82-.03-2.88-.08-5.75-.18-8.63-.03-.98.28-1.63,1.18-2.13,7.5-4.13,15.23-7.75,23.36-10.45.14-.05.31,0,.97,0Z" style="fill:#fff; stroke-width:0px;"/><path d="M465.62,659.34c-.78-.67-1.34-1.11-1.86-1.59-8.39-7.75-16.9-15.38-25.1-23.33-3.47-3.37-6.3-7.41-9.36-11.18-.36-.44-.49-1.18-.5-1.78-.05-9.82-.06-19.65-.06-29.47,0-.38.13-.75.19-1.06,2.74,0,5.36-.11,7.96.07.7.05,1.42.93,1.97,1.56,7.76,8.92,15.49,17.86,23.23,26.8,4.08,4.71,8.12,9.45,12.26,14.11,1.01,1.14,1.37,2.11.74,3.61-2.84,6.68-5.56,13.41-8.35,20.12-.27.66-.65,1.26-1.12,2.15Z" style="fill:#fff; stroke-width:0px;"/><path d="M856.01,325.27c-.38,3.56-.75,7.13-1.15,10.69-.88,7.94-1.77,15.87-2.66,23.81-1.07,9.6-2.14,19.21-3.21,28.81-.83,7.46-1.63,14.93-2.51,22.38-.14,1.16-.5,2.33-.97,3.4-.88,2.03-1.91,4-3.03,6.31-.52-.79-.87-1.27-1.15-1.79-.58-1.05-1.21-2.08-1.68-3.18-2.19-5.17-5.94-9.24-9.49-13.45-.5-.59-1.19-1.08-1.89-1.42-3.81-1.82-7.65-3.58-11.49-5.36-.42-.2-.85-.38-1.45-.65.56-3.17.85-6.22,2.63-9.09,12.11-19.47,24.09-39.02,36.12-58.54.45-.72.94-1.42,1.41-2.13.17.07.34.13.51.2Z" style="fill:#fff; stroke-width:0px;"/><path d="M840.97,449.82c-.56-.12-1.01-.26-1.48-.31-2.17-.25-3.09-1.67-3.46-3.62-.35-1.89-.16-3.63,1.34-5.03.23-.22.47-.43.71-.64,5.27-4.84,5.3-5.01,6.75-12.12.97-4.73-.19-3.52,4.4-5.11,18.99-6.59,38-13.15,57-19.71.74-.25,1.48-.48,2.72-.87-.63.89-.93,1.4-1.31,1.83-12.76,14.42-25.53,28.82-38.26,43.26-.98,1.11-1.98,1.64-3.47,1.7-2.55.1-5.09.44-7.64.65-1.89.16-2.94-.58-3.55-2.43-.27-.83-.52-1.67-.82-2.63-2.89-.34-5.73-.16-8.54.42-.54.11-1.06.65-1.46,1.1-1,1.13-1.93,2.32-2.92,3.52Z" style="fill:#fff; stroke-width:0px;"/><path d="M739.28,332.4c1.93,2.27,3.61,4.26,5.43,6.4.79-.94,1.38-1.64,2.06-2.45-1.78-2.34-3.47-4.55-5.11-6.7,1.35-2.7,10.84-14.49,13.52-16.78.42.69.85,1.34,1.23,2.02,5.37,9.54,10.72,19.08,16.09,28.61.59,1.05,1.07,2.08,1.02,3.36-.38,11.18-.71,22.36-1.06,33.54,0,.31-.1.61-.17,1.06-2.39.09-4.63-.47-6.82-1.06-.64-.17-1.18-1-1.63-1.63-6.52-9.19-13.01-18.39-19.51-27.59-2.67-3.78-5.35-7.57-8.02-11.36-1.15-1.64-1.15-1.65,0-3.31.91-1.3,1.85-2.58,2.96-4.12Z" style="fill:#fff; stroke-width:0px;"/><path d="M696.11,641.75c19.21-20.93,38.31-41.75,57.42-62.56l.49.31c-13.23,28.35-26.5,56.69-39.96,85.42-7.19-7.1-12.98-14.73-17.96-23.16Z" style="fill:#fff; stroke-width:0px;"/><path d="M388.85,250.52c3.67.62,6.33,2.29,8.75,4.36,6.98,5.98,13.89,12.02,20.87,18,1.08.93,2.26,1.78,3.51,2.46,9.65,5.31,19.29,10.64,29.3,15.27,1.59.74,3.09,1.68,4.69,2.39,2.23.98,3.53,2.45,3.82,4.99.23,2.04,2.14,2.61,3.79,3.17.97.33,2.03.41,3.06.56,1.68.25,3.26.65,4.39,2.11.32.41.88.82,1.37.88,2.67.31,5.3,1.26,8.05.46,1.21-.35,2.48-.48,3.83-.72,1.22,2.78,3.79,3.28,6.24,3.93,1.24.33,2.44.59,3.35,1.65,1.73,2,2.01,5.83.46,8-1.34,1.89-2.68,3.74-5.05,4.57-.63.22-1.1,1.08-1.5,1.73-.78,1.27-1.46,2.61-2.24,4.02-.8-.36-1.38-.59-1.92-.88-7.16-3.73-13.97-8-20.45-12.86-10.92-8.21-22.11-16.05-32.94-24.37-5.43-4.17-10.5-8.86-15.43-13.63-8.32-8.05-16.4-16.35-24.58-24.56-.38-.38-.72-.8-1.36-1.52Z" style="fill:#fff; stroke-width:0px;"/><path d="M972.81,338.25c4.77,11.26,8.37,22.45,11.38,34.19-20.81,7.5-41.57,14.86-62.31,22.26-.1-.14-.21-.29-.31-.43,16.99-18.58,33.98-37.15,51.24-56.01Z" style="fill:#fff; stroke-width:0px;"/><path d="M391.03,615.38c-.95,5.25-1.9,10.51-2.86,15.76-2.04,11.07-4.07,22.15-6.15,33.22-.17.92-.5,1.86-.97,2.66-3.26,5.59-6.61,11.13-9.87,16.72-.66,1.14-1.41,1.75-2.82,1.76-3.68.03-7.35.19-11.03.35-.97.04-1.71-.19-2.25-1.03-.34-.54-.7-1.07-1.11-1.56-.85-1.01-.95-1.99-.47-3.29,3.59-9.57,7.07-19.18,10.63-28.77.33-.88.82-1.73,1.39-2.49,7.95-10.73,15.92-21.43,23.89-32.14.37-.49.8-.94,1.2-1.4.14.07.28.14.41.21Z" style="fill:#fff; stroke-width:0px;"/><path d="M383.59,579.56c2.12,2.9,3.91,5.32,5.85,7.97-.21.34-.54.95-.93,1.52-4.74,6.83-9.49,13.64-14.21,20.48-.71,1.02-1.5,1.75-2.72,2.16-10.13,3.42-20.25,6.89-30.37,10.34-.52.18-1.06.29-1.79.49-.09-.63-.25-1.14-.22-1.64.33-5.66.71-11.32,1.04-16.98.08-1.34.74-2.12,1.88-2.78,9.88-5.72,19.72-11.52,29.61-17.24,2.21-1.28,4.45-2.56,6.82-3.47,1.66-.63,3.56-.62,5.04-.86Z" style="fill:#fff; stroke-width:0px;"/><path d="M383.25,571.17c-2.02.49-4.08.98-6.32,1.52-1-2.45-2.63-4.36-2.16-6.94.19-1.07.52-2.19,1.06-3.12,1.8-3.11,1.84-6.36,1.16-9.74-.23-1.13-.93-1.75-1.96-1.74-1.03.01-2.11.33-2.32,1.63-.3,1.96-.74,3.92-.8,5.9-.1,3.35.06,6.71.09,10.06,0,.68-.1,1.36-.18,2.45-7.89-4.53-15.47-8.89-22.99-13.22-.19-6.06,8.57-33.09,12.39-38.21.92,1.24,1.81,2.45,2.72,3.65,7.01,9.32,13.99,18.66,21.07,27.93,1.04,1.37,1.27,2.53.73,4.13-.76,2.26-1.48,4.58-1.84,6.93-.42,2.74-.43,5.53-.65,8.77Z" style="fill:#fff; stroke-width:0px;"/><path d="M821.4,601.29c3.41,29.01,6.83,58.02,10.24,86.99-2.05.61-20.38.66-22.9.07,4.03-28.98,8.07-57.98,12.11-86.98l.55-.08Z" style="fill:#fff; stroke-width:0px;"/><path d="M412.44,622.85c.26.66.54,1.31.77,1.97,3.12,8.88,6.25,17.76,9.31,26.67.41,1.18.64,2.49.62,3.73-.24,12.14-.55,24.27-.85,36.41,0,.31-.07.63-.13,1.1-1.25-.36-1.88-1.36-2.45-2.2-2.03-2.99-4.76-4.15-8.33-3.93-2.46.15-4.95-.09-7.42-.18-.86-.03-1.72-.14-2.7-.23-.05-.79-.14-1.4-.11-2.02.27-5.34.38-10.7.9-16.02.3-3.16,1.21-6.26,1.89-9.37,2.53-11.53,5.08-23.06,7.63-34.59.1-.44.26-.87.39-1.3l.47-.04Z" style="fill:#fff; stroke-width:0px;"/><path d="M439.91,686.41c-.69,2.14-1.33,4.1-2.05,6.33-.38-.55-.7-.86-.84-1.25-3.93-10.97-7.85-21.95-11.74-32.94-.26-.73-.38-1.57-.33-2.34.62-10.37,1.28-20.73,1.94-31.1.02-.29.13-.57.28-1.16.55.56.95.9,1.27,1.31,1.96,2.52,3.94,5.04,5.85,7.6.56.76,1.01,1.63,1.35,2.51,5.63,14.52,11.21,29.05,16.87,43.56.6,1.52.57,2.69-.52,3.92-1.22,1.37-2.06,3.45-3.55,4.08-1.48.63-3.56-.16-5.38-.32-1.02-.09-2.04-.14-3.14-.22Z" style="fill:#fff; stroke-width:0px;"/><path d="M724.2,468.5c-2.35,9.48-4.55,18.37-6.81,27.48-13.53-.46-26.9-.92-40.48-1.38.85-5.11,1.65-9.89,2.47-14.82,14.85-3.74,29.59-7.45,44.82-11.28Z" style="fill:#fff; stroke-width:0px;"/><path d="M449.18,560.33c.35-1.12.55-1.86.82-2.58,3.53-9.58,7.07-19.15,10.59-28.74.45-1.23,1.03-2.21,2.23-2.95,8.35-5.15,16.66-10.38,24.98-15.58.46-.29.96-.5,1.73-.89,1.79,7.53,2.62,14.99,3.21,22.6-.9.52-1.71,1.01-2.54,1.47-8.17,4.52-16.35,9.01-24.5,13.56-1.52.85-2.99,1.84-4.33,2.95-3.75,3.11-7.41,6.31-11.11,9.47-.22.18-.48.31-1.08.7Z" style="fill:#fff; stroke-width:0px;"/><path d="M743.7,685.15c7.99-23.13,15.95-46.18,23.91-69.23.21.04.43.08.64.12-1.08,24.11-2.15,48.23-3.23,72.47-.83.11-1.43.24-2.04.25-2,.03-4,.01-6,.01-5.5,0-7.93-.64-13.28-3.62Z" style="fill:#fff; stroke-width:0px;"/><path d="M706.34,528.79c-.08.52-.08.92-.21,1.27-.35.98-.69,1.97-1.15,2.89-2.32,4.67-3.09,9.69-3.45,14.81-.06.87-.33,1.75-.27,2.61.15,2.26-1.13,3.36-2.9,4.43-7.02,4.28-13.97,8.69-20.94,13.04-.66.41-1.36.78-2.35,1.34-.16-1.08-.37-1.91-.4-2.74-.3-8.38-.55-16.76-.86-25.13-.06-1.47.5-2.29,1.81-2.96,5.68-2.92,11.28-5.98,16.96-8.9.95-.49,2.1-.75,3.17-.79,2.87-.11,5.75-.05,8.63-.03.61,0,1.22.1,1.97.16Z" style="fill:#fff; stroke-width:0px;"/><path d="M431.32,474.14c-1.37,25.57-2.73,51.14-4.11,76.84-4.05.98-7.89,1.91-11.67,2.82-1.71-2.11-2.71-4.1-2.69-6.7.03-5.19-.29-10.38-.4-15.58-.02-1.01.14-2.08.46-3.04,5.75-17.61,11.53-35.21,17.31-52.81.18-.56.47-1.09.71-1.63.13.03.25.07.38.1Z" style="fill:#fff; stroke-width:0px;"/><path d="M723.41,463.19c-14.23,3.42-28.55,6.86-43.12,10.36.04-.79-.02-1.41.11-1.98,1.28-5.68,2.62-11.34,3.87-17.03.3-1.35.91-1.97,2.31-2.24,11.98-2.29,23.95-4.67,35.93-7,.54-.1,1.1-.1,1.63-.15.43,1.73-.12,15.54-.73,18.05Z" style="fill:#fff; stroke-width:0px;"/><path d="M492.02,434.03c-2.01-1.19-2.46-2.91-2.59-4.8-.49-7.17-1.04-14.33-1.46-21.5-.26-4.46-.35-8.93-.5-13.4-.13-3.88,1.39-7.27,3.03-10.75,2.4.62,4.5,1.24,6.19,3.08,6.54,7.11,13.2,14.12,19.81,21.16.59.63,1.14,1.29,1.87,2.11-3.13,1.42-6,2.78-8.92,4.02-1.43.61-2.65,1.42-3.67,2.59-.94,1.08-1.94,2.12-2.97,3.13-4.02,3.92-7.67,8.11-10.07,13.26-.16.35-.43.66-.72,1.08Z" style="fill:#fff; stroke-width:0px;"/><path d="M866.87,251.4c4.64-1.16,20.72.87,26.06,3.39-10.09,17.36-20.17,34.71-30.37,52.26-.53-1.92,3.5-52.64,4.31-55.65Z" style="fill:#fff; stroke-width:0px;"/><path d="M365.05,263.01c-2.75-.75-4.62-1.76-5.94-3.79-.51-.78-1.61-1.27-2.54-1.66-2.19-.9-3.96-2.25-5.56-4.02-1.98-2.19-4.21-4.15-6.31-6.23-.79-.78-1.52-1.63-2.5-2.69.62-.92,1.09-1.95,1.84-2.69,3.85-3.84,7.76-7.61,11.67-11.39.46-.44.98-.82,1.51-1.17,2.61-1.71,5.47-1.47,7.41.96,3.56,4.45,8.1,7.43,13.35,9.39,1.81.68,2.93,1.8,3.49,3.67-1.4,2.11-2.86,4.16-5.28,5.34-3.31,1.61-5.19,4.64-7.1,7.59-1.41,2.2-2.71,4.47-4.04,6.68Z" style="fill:#fff; stroke-width:0px;"/><path d="M398.31,468.59c.47,2.84.93,5.49,1.35,8.15,1.38,8.9,2.76,17.81,4.11,26.72.11.76.13,1.61-.1,2.33-1.94,6.08-3.94,12.13-5.93,18.19-.09.29-.3.54-.55.97-.46-.48-.86-.82-1.16-1.24-2.57-3.56-5.1-7.14-7.69-10.68-.7-.95-1.01-1.93-1.04-3.1-.19-9.42-.44-18.83-.6-28.24-.01-.81.19-1.85.7-2.39,3.23-3.43,6.56-6.74,9.88-10.09.21-.21.52-.31,1.05-.61Z" style="fill:#fff; stroke-width:0px;"/><path d="M710.83,520.84c-12-1.41-23.78-2.79-35.85-4.21.27-5.3.77-10.4,1.55-15.81,13.14,1.58,26.14.97,39.52.83-1.5,6.52-3.46,12.62-5.22,19.19Z" style="fill:#fff; stroke-width:0px;"/><path d="M450.5,563.37c.3-.58.37-.8.51-.94.39-.4.83-.75,1.22-1.15,7.46-7.33,15.79-13.42,25.05-18.3,4.45-2.34,8.7-5.05,13.05-7.59.67-.39,1.38-.72,2.44-1.27.78,8.96.55,17.6-.07,26.57-14,.99-27.95,1.86-42.22,2.68Z" style="fill:#fff; stroke-width:0px;"/><path d="M371.89,499.49c1.71,1.76,3.04,3.14,4.38,4.5,2.74,2.8,5.45,5.62,8.24,8.36.93.91,1.29,1.87,1.36,3.16.53,10.21,1.14,20.41,1.69,30.62.07,1.32,0,2.65,0,4.12-1.62-1.17-22.32-28.73-25.34-33.67,3.07-5.44,6.24-11.05,9.65-17.1Z" style="fill:#fff; stroke-width:0px;"/><path d="M446.72,570.36c.13-.55.18-.86.27-1.15,1.12-3.53.83-2.97,4.01-3.23,8.99-.71,17.97-1.46,26.96-2.19,4.37-.36,8.75-.72,13.12-1.07.38-.03.77,0,1.47,0-.45,7.92-1.51,15.58-3.01,23.51-14.46-5.36-28.62-10.61-42.82-15.87Z" style="fill:#fff; stroke-width:0px;"/><path d="M701.6,556.73c.61,3.93.54,8.17,5.77,9.41-9.12,11.35-18.09,22.5-27.28,33.93-.33-.92-.62-1.46-.72-2.04-1.27-7.3-2.51-14.61-3.77-21.92-.21-1.2-.01-2.08,1.12-2.84,7.89-5.28,15.73-10.63,23.6-15.95.31-.21.68-.32,1.28-.59Z" style="fill:#fff; stroke-width:0px;"/><path d="M487.67,595.71c-1.36,5.01-2.6,9.59-3.9,14.37-1.05-.43-1.78-.71-2.49-1.03-12.6-5.67-25.17-11.4-37.82-16.96-2.75-1.21-3.98-2.99-3.92-5.86.02-.87,0-1.74,0-2.95,16.07,4.15,31.94,8.25,48.13,12.44Z" style="fill:#fff; stroke-width:0px;"/><path d="M370.92,615.91c-.62,2.7-1.23,5.41-1.85,8.11-1.94,8.48-3.85,16.97-5.84,25.43-.2.87-.66,1.87-1.32,2.42-5.28,4.4-10.63,8.7-15.97,13.03-.18.14-.42.2-.91.43-.65-2.09-1.35-4.09-1.89-6.13-.55-2.08-1.58-4.32-1.21-6.27.35-1.84,2.21-3.41,3.47-5.05,7.83-10.11,15.67-20.2,23.52-30.29.51-.66,1.07-1.28,1.6-1.92.13.08.27.15.4.23Z" style="fill:#fff; stroke-width:0px;"/><path d="M483.25,611.81c-2.08,7.13-4.17,14.12-6.9,21.41-11.26-13.03-22.25-25.75-33.34-38.59,1.81.1,36.61,15.01,40.24,17.19Z" style="fill:#fff; stroke-width:0px;"/><path d="M396.95,686.3h-14.42c-.08-.74-.21-1.27-.17-1.79.43-5.65.88-11.3,1.37-16.95.05-.61.26-1.26.56-1.8,3.41-6.14,6.84-12.27,10.28-18.4.11-.2.3-.35.66-.77.22.7.48,1.23.54,1.78.86,8.02,1.65,16.04,2.54,24.05.37,3.32-.37,6.52-.72,9.76-.15,1.41-.42,2.8-.62,4.11Z" style="fill:#fff; stroke-width:0px;"/><path d="M391.18,590.03c0,4.12.01,7.62,0,11.12-.01,2.87,0,5.75-.14,8.62-.04.89-.31,1.92-.84,2.62-7.25,9.72-14.57,19.4-21.87,29.08-.22.29-.5.53-1.05.63.14-.68.27-1.37.44-2.04,1.86-7.42,3.68-14.86,5.63-22.26.4-1.5,1.08-3,1.94-4.3,4.7-7.13,9.5-14.19,14.27-21.27.42-.63.9-1.22,1.63-2.2Z" style="fill:#fff; stroke-width:0px;"/><path d="M446.77,504.12h6.68c-.08,2.02-21.12,59.45-22.62,61.62-.58-4.92-1.15-9.58-1.64-14.24-.06-.59.21-1.25.43-1.84,5.53-14.82,11.07-29.63,16.62-44.44.14-.37.34-.71.53-1.09Z" style="fill:#fff; stroke-width:0px;"/><path d="M499.61,355.23c.93.33,1.53.49,2.1.74,5.84,2.56,11.67,5.16,17.52,7.7,1.14.49,1.76,1.11,1.8,2.46.18,6.54.46,13.08.69,19.62.01.31-.07.62-.13,1.16-.58-.36-1.06-.58-1.45-.91-7.1-6.07-14.17-12.17-21.29-18.22-.95-.81-1.34-1.54-1.04-2.85.7-3.1,1.18-6.25,1.81-9.7Z" style="fill:#fff; stroke-width:0px;"/><path d="M396.69,638.19c-2.38-15.69-2.74-30.84-2.44-46.43.76.72,1.24,1.11,1.65,1.56,3.4,3.7,6.77,7.44,10.2,11.11.85.91,1.44,1.88,1.57,3.13.05.47.16.94.23,1.42.37,2.35,1.32,4.81.94,7.04-.39,2.23-2.09,4.25-3.24,6.34-2.46,4.47-4.94,8.94-7.42,13.4-.38.68-.81,1.32-1.5,2.43Z" style="fill:#fff; stroke-width:0px;"/><path d="M464.7,661.38c-3.07,6.26-6.38,12.15-10.51,18.24-5.4-14.36-10.53-28.29-15.67-42.21.15-.1.29-.21.44-.31,8.55,8.07,17.11,16.14,25.73,24.28Z" style="fill:#fff; stroke-width:0px;"/><path d="M757.05,310.44c4.97-5.53,10.09-10.73,15.56-15.78.57,2.08.69,43.19.1,46.01-5.3-10.24-10.41-20.1-15.66-30.23Z" style="fill:#fff; stroke-width:0px;"/><path d="M339.17,625.07c9.41-3.11,18.69-6.19,28.13-9.32-.67,1.88-24.44,30.84-26.48,32.29-1.23-7.66-1.79-15.22-1.65-22.98Z" style="fill:#fff; stroke-width:0px;"/><path d="M489.16,588.64c-.45,1.96-.81,3.57-1.23,5.38-15.78-4.26-31.31-8.46-47.14-12.74,1.75-2.88,3.35-5.51,5.08-8.37,14.44,5.24,28.73,10.44,43.28,15.73Z" style="fill:#fff; stroke-width:0px;"/><path d="M519.21,346.56c-4.13-.15-7.91-.43-11.31-2.58-2.85-1.8-3.51-3.18-2.78-6.57.9-.48,1.87-.88,2.7-1.46.9-.64,1.68-1.45,2.72-2.36-1.01-1.97-2.03-3.83-2.91-5.76-.31-.67-.5-1.53-.36-2.23.56-2.73,1.22-5.43,1.97-8.11.13-.47.82-.98,1.35-1.12,2.52-.67,5.06-.6,7.55.22,1.19.39,1.81,1.15,1.57,2.54-.27,1.57-.36,3.17-.55,4.75-.79,6.54-.32,13.08.06,19.62.05.94,0,1.89,0,3.06Z" style="fill:#fff; stroke-width:0px;"/><path d="M344.05,577.98c1.28-6.03,2.49-11.78,3.75-17.73.73.27,1.25.39,1.71.63,6.97,3.72,13.91,7.48,20.9,11.17,1.11.58,1.68,1.24,1.73,2.54.04,1.08.45,2.15.74,3.38h-28.82Z" style="fill:#fff; stroke-width:0px;"/><path d="M772.9,553.52c.47-5.09.85-9.61,1.34-14.13.08-.73.54-1.5,1.02-2.1,3.86-4.78,7.79-9.52,11.66-14.3.72-.89,1.55-1.26,2.69-1.18,1.02.07,2.05.02,3.38.02-.29,1.46-.5,2.68-.77,3.88-.96,4.36-1.95,8.72-2.91,13.09-.23,1.03-.56,1.93-1.44,2.65-4.52,3.69-8.99,7.43-13.48,11.15-.29.24-.64.4-1.47.91Z" style="fill:#fff; stroke-width:0px;"/><path d="M723.22,437.62c-11.81,1.79-23.62,3.58-35.91,5.45,1.34-5.88,3.07-11.2,4.85-16.8,10.48,3.63,20.78,7.19,31.07,10.76,0,.2,0,.4-.01.6Z" style="fill:#fff; stroke-width:0px;"/><path d="M340.98,598.71c.5-5.95,1.47-11.57,2.56-17.37,10.62-.69,21.13-1.38,31.54-2.06.14.33.18.4.19.47,0,.07,0,.18-.03.2-10.96,6.09-21.92,12.17-32.89,18.24-.33.18-.71.27-1.37.52Z" style="fill:#fff; stroke-width:0px;"/><path d="M405.41,501.19c-.47-3.06-.96-6.12-1.42-9.19-1.11-7.42-2.2-14.83-3.3-22.25-.1-.71-.27-1.43-.22-2.14.04-.57.19-1.34.58-1.65,2.8-2.22,5.68-4.34,8.82-6.7.2.85.37,1.26.39,1.68.34,7.9.69,15.79.94,23.69.04,1.31-.21,2.7-.64,3.95-1.23,3.62-2.62,7.2-3.96,10.78-.24.64-.55,1.25-.83,1.88-.12-.02-.24-.04-.36-.05Z" style="fill:#fff; stroke-width:0px;"/><path d="M476.99,434.09c-1.38-.31-2.37-.61-3.39-.75-1.18-.15-1.89-.64-2.07-1.89-.16-1.12-.9-1.79-2-2.15-3.26-1.06-6.5-2.18-9.75-3.24-2.03-.67-4.08-1.28-6.21-1.95.46-2.56,1.46-4.44,3.69-5.47,1.15-.53,1.97-1.33,2.49-2.46.47-1.01,1.22-1.32,2.33-1.19,1.99.24,3.89.59,5.77,1.4,2.7,1.16,5.52,2.07,8.33,2.96,1.48.47,2.36,1.22,2.31,2.85-.01.39.2.8.15,1.18-.51,3.46-1.06,6.92-1.64,10.7Z" style="fill:#fff; stroke-width:0px;"/><path d="M827.08,547.81c-.4-.47-.81-.92-1.18-1.41-3.76-4.96-7.48-9.95-11.27-14.89-.81-1.06-1.27-2.13-1.28-3.49-.03-4.71-.12-9.42-.24-14.12-.03-1.12.27-1.99,1.12-2.74,1.31-1.15,2.55-2.38,4.16-3.91,1.35,4.77,2.17,9.26,3.17,13.7,1,4.43,1.98,8.87,2.97,13.3.99,4.46,1.98,8.92,2.97,13.38l-.42.17Z" style="fill:#fff; stroke-width:0px;"/><path d="M828.17,534.34c-.19-.48-.44-.95-.57-1.45-2.44-9.51-4.87-19.03-7.29-28.54-.15-.61-.4-1.31-.23-1.86.88-2.89,1.88-5.74,2.92-8.83,2.92,1.18,5.63,2.28,8.52,3.45-.99,12.45-1.97,24.81-2.95,37.17-.13.02-.27.04-.4.05Z" style="fill:#fff; stroke-width:0px;"/><path d="M791.68,385.36c-5.52-1.42-11.04-2.84-16.83-4.32.39-8.86.77-17.54,1.15-26.22.21-.04.42-.08.63-.13,5.12,10.04,10.24,20.09,15.36,30.13-.11.18-.21.36-.32.54Z" style="fill:#fff; stroke-width:0px;"/><path d="M462.98,523.56c1.48-5.92,2.97-11.84,4.47-17.86,7-.66,13.8-1.3,20.75-1.96.32,1.26.59,2.32.91,3.57-8.63,5.55-17.19,11.05-25.74,16.55-.13-.1-.26-.2-.39-.3Z" style="fill:#fff; stroke-width:0px;"/><path d="M615.87,267.42c-7.7,5.46-15.4,10.93-23.56,16.71-.54-6.22-1.03-11.9-1.55-17.9,8.4-.23,16.62.57,24.86.51.08.22.16.45.25.67Z" style="fill:#fff; stroke-width:0px;"/><path d="M401.49,575.01c-.61-2.9-1.14-5.45-1.72-8.22,3.98-2.14,8.03-4.32,12.09-6.51,1.92,2.41,3.7,4.83,5.67,7.09,1.92,2.2,4.04,4.24,6.23,6.51-2.4,1.14-4.42,2.07-6.86,1.91-4.46-.28-8.92-.36-13.39-.54-.7-.03-1.4-.16-2.02-.23Z" style="fill:#fff; stroke-width:0px;"/><path d="M430.1,541.32c.86-13.8,1.73-27.59,2.61-41.63,1.75,1.21,3.28,2.27,4.81,3.31,1.67,1.14,3.59,0,5.69.5-4.22,12.75-8.38,25.34-12.54,37.92-.19-.03-.38-.06-.57-.1Z" style="fill:#fff; stroke-width:0px;"/><path d="M785.58,547.83c-4.21,13.73-8.43,27.46-12.64,41.2-.14-.02-.29-.03-.43-.05-.07-.58-.19-1.16-.2-1.74-.25-8.3-.46-16.61-.76-24.91-.05-1.39.33-2.39,1.37-3.34,3.7-3.41,7.33-6.9,10.99-10.36.39-.37.84-.67,1.26-1.01.14.07.27.14.41.21Z" style="fill:#fff; stroke-width:0px;"/><path d="M424.77,666.43c.5.98.81,1.49,1.04,2.04,3.45,8.16,6.85,16.33,10.36,24.46.85,1.97.73,3.97.32,5.86-.22,1.03-1.57,1.83-2.48,2.8-.65-.49-1.12-.77-1.51-1.13-2.16-2.02-4.28-4.08-6.46-6.07-.82-.75-1.26-1.53-1.27-2.68-.05-7.98-.14-15.97-.22-23.95,0-.28.09-.56.22-1.34Z" style="fill:#fff; stroke-width:0px;"/><path d="M811.96,495.15h6.98c-.14,3.02-.23,5.78-.42,8.53-.03.41-.42.85-.73,1.19-6.17,6.89-12.36,13.78-18.55,20.66-.14.16-.38.24-.83.53-.15-2.88-.94-5.6,1.56-7.82.63-.56,1.02-1.42,1.46-2.17,2.7-4.61,5.35-9.25,8.1-13.83,1.09-1.81,1.93-3.65,2.14-5.76.05-.46.18-.91.27-1.32Z" style="fill:#fff; stroke-width:0px;"/><path d="M411.91,611.2c1.76,1.6,3.51,3.19,5.27,4.79,1.59,1.45,3.18,2.9,4.77,4.35,2.83,2.58,2.82,2.58,2.62,6.29-.31,5.73-.59,11.46-.89,17.19-.03.62-.11,1.24-.21,2.32-.48-.65-.8-.94-.94-1.3-3.02-7.8-6.14-15.56-8.94-23.44-1.13-3.18-1.53-6.62-2.27-9.95.2-.09.4-.18.6-.26Z" style="fill:#fff; stroke-width:0px;"/><path d="M384.98,482.89c.34,9.24.69,18.48,1.03,27.72-.18.07-.36.15-.54.22-4.05-4.22-8.09-8.44-12.33-12.86,3.45-5.35,7.21-10.39,11.23-15.24.2.06.4.11.6.17Z" style="fill:#fff; stroke-width:0px;"/><path d="M414.05,559.79c.73-.81,1.37-1.34,1.77-2.01.36-.59.46-1.33.71-2.13,3.44-.61,6.86-1.22,10.57-1.87.84,6.03,1.64,11.77,2.47,17.71-1.44.65-2.8,1.26-4.42,1.98-3.72-4.58-7.41-9.14-11.11-13.69Z" style="fill:#fff; stroke-width:0px;"/><path d="M601.71,507.86v-7.25c1.65-.58,20.18-.74,23.18-.18v7.43h-23.18Z" style="fill:#fff; stroke-width:0px;"/><path d="M833.16,490.24c.77,0,1.54-.01,2.31,0,5.34.12,10.69.25,16.03.35.98.02,1.82.12,2.52,1.02,2.66,3.39,5.41,6.7,8.12,10.05.19.23.29.54.58,1.11-1.09-.3-1.92-.5-2.74-.74-7.7-2.32-15.38-4.76-23.13-6.91-2.6-.72-3.72-2.08-3.7-4.88Z" style="fill:#fff; stroke-width:0px;"/><path d="M821.55,578.86c-2.03-12.65-4.05-25.3-6.08-37.95.16-.07.32-.14.47-.21.46.39.95.76,1.39,1.18,2.2,2.09,4.33,4.26,6.59,6.27,1.14,1.01,1.53,2.06,1.34,3.56-.57,4.43-1.01,8.88-1.5,13.31-.46,4.12-.92,8.24-1.39,12.36-.06.51-.24,1-.36,1.5-.15,0-.3-.01-.46-.02Z" style="fill:#fff; stroke-width:0px;"/><path d="M425.99,619.38c-.54-.37-1.08-.68-1.56-1.06-2.79-2.26-5.53-4.6-8.38-6.79-1.22-.94-1.68-1.96-1.54-3.47.2-2.04.23-4.09.34-6.4,4.13.58,7.96,1.12,11.72,1.65.38,3.6,0,14.33-.59,16.07Z" style="fill:#fff; stroke-width:0px;"/><path d="M409.22,622.58c-2.76,12.67-5.52,25.33-8.29,38-.15.01-.3.03-.44.04-.12-.3-.31-.6-.36-.91-.8-4.89-1.54-9.78-2.37-14.66-.28-1.65-.02-3.07.83-4.55,3.07-5.33,6.01-10.73,9.01-16.1.38-.67.79-1.33,1.18-1.99l.43.18Z" style="fill:#fff; stroke-width:0px;"/><path d="M346.05,667.64c4.72-3.97,9.52-8.01,14.31-12.05.16.09.31.19.47.28-2.92,7.82-5.83,15.63-8.79,23.56-1.91-1.88-4.85-7.72-5.99-11.79Z" style="fill:#fff; stroke-width:0px;"/><path d="M846.81,461.64c1.87-.86,3.64-1.42,5.11-2.42,1.78-1.21.75-3.42,1.32-5.33,3.69-.73,7.4-1.47,11.12-2.21.1.15.21.3.31.45-3.62,5.39-7.4,10.67-11.17,16.12-1.83-.87-3.57-1.62-5.22-2.52-.47-.26-.85-.89-1.02-1.43-.26-.82-.3-1.71-.44-2.65Z" style="fill:#fff; stroke-width:0px;"/><path d="M387.9,515.32c.38.46.69.78.93,1.14,2.23,3.3,4.46,6.6,6.68,9.91.44.65.94,1.23.61,2.16-1.91,5.47-3.76,10.96-5.69,16.62-.87-1.81-3.01-27.24-2.53-29.83Z" style="fill:#fff; stroke-width:0px;"/><path d="M438.05,405.39c2.26,1.31,4.06,2.3,5.81,3.39.52.32.98.83,1.31,1.35,1.41,2.2,1.48,2.3-.2,4.39-1.7,2.1-3.57,4.05-5.41,6.04-.36.39-.86.78-1.36.91-1.67.44-3.37.76-5.21,1.17-.01-1.84.32-3.34,1.26-4.67,1.85-2.61,2.75-5.5,2.83-8.71.03-1.13.55-2.25.97-3.86Z" style="fill:#fff; stroke-width:0px;"/><path d="M386.13,656.5c2.14-11.74,4.29-23.49,6.43-35.23.11-.02.21-.03.32-.05.16.46.42.91.46,1.39.52,5.8,1.01,11.61,1.48,17.42.04.53,0,1.16-.23,1.62-2.59,5.02-5.23,10.01-7.86,15.01-.2-.05-.39-.11-.59-.16Z" style="fill:#fff; stroke-width:0px;"/><path d="M414.08,556.9c-4.49,2.66-8.77,5.19-13.58,8.04.41-1.9.57-3.3,1.01-4.6,1.16-3.39,2.41-6.75,3.69-10.09.65-1.7,2.39-2.05,3.5-.65,1.82,2.3,3.48,4.71,5.38,7.29Z" style="fill:#fff; stroke-width:0px;"/><path d="M437.8,450.63c1.73.14,3.36.28,5.18.43,0,.77.04,1.31,0,1.84-.24,2.7-.52,5.4-.76,8.11-.1,1.12-.47,2-1.59,2.41-1.13.42-1.71,1.35-2.29,2.33-1.2,2.04-2.46,4.04-3.97,6-.38-2.52-.7-4.98.02-7.44.02-.08.07-.14.1-.22.91-2.13,2.07-4.2,2.64-6.41.54-2.12.46-4.4.68-7.05Z" style="fill:#fff; stroke-width:0px;"/><path d="M688.42,528c-4.68,2.24-9.36,4.47-14.48,6.91.14-3.72.27-6.93.4-10.5,4.88,1.03,9.41,1.98,13.94,2.94.04.22.09.43.13.65Z" style="fill:#fff; stroke-width:0px;"/><path d="M762.29,567.31c-.06-2.26-.23-4.53,1.14-6.59,1.98-2.98,2.66-6.47,3.74-9.8.31-.96.65-1.92.99-2.92,1.88,1.11,2.66,2.35,2.15,4.45-.56,2.31-.76,4.72-1.01,7.1-.12,1.1-.52,1.93-1.3,2.71-1.75,1.75-3.42,3.57-5.12,5.37-.2-.11-.39-.21-.59-.32Z" style="fill:#fff; stroke-width:0px;"/><path d="M412.66,457.62c3.15-1.48,6.01-2.83,8.87-4.18.15.12.3.24.46.36-1.27,5.14-2.9,10.18-4.69,15.22-1.75-3.73-3.26-7.44-4.63-11.4Z" style="fill:#fff; stroke-width:0px;"/><path d="M381.63,670.67c-.39,5.06-.78,10.13-1.19,15.48-2.45.1-4.8,0-7.17-.12.27-1.72,5.84-12.58,8.36-15.36Z" style="fill:#fff; stroke-width:0px;"/><path d="M405.81,594.43c2.56-.12,4.65.5,6.83,1.38v12.57c-2.41-2.59-4.62-4.84-5.98-7.53-.9-1.78-.59-4.16-.85-6.43Z" style="fill:#fff; stroke-width:0px;"/><path d="M422.57,601.39v-11.03c1.57-.2,2.86-.37,4.3-.56v11.81c-1.51-.08-2.82-.15-4.3-.23Z" style="fill:#fff; stroke-width:0px;"/><path d="M399.61,585.75c.91.18,1.9.38,3.16.63.46,3.83.92,7.65,1.39,11.61-1.7-.65-5.08-3.97-7.92-7.61,1.04-1.43,2.09-2.87,3.37-4.63Z" style="fill:#fff; stroke-width:0px;"/><path d="M806.43,492.47c.23,2.65.47,5.3.71,8.08-1.55.7-3.17,1.1-4.35,2.06-1.09.89-1.7,2.37-2.75,3.51.02-3.25-.71-6.56,2.06-9.25,1.41-1.37,2.52-3.04,3.76-4.57.19.06.38.11.57.17Z" style="fill:#fff; stroke-width:0px;"/><path d="M620.77,462.03c.06.44.11.54.08.6-1.72,4.49-2.25,4.78-7.66,4.04-.55-1.79-1.13-3.66-1.69-5.55-.15-.51-.22-1.05-.41-2.01,3.43,1.04,6.55,1.98,9.68,2.92Z" style="fill:#fff; stroke-width:0px;"/><path d="M578.39,472.84c-3.83.42-5.56-2.09-7.39-4.08,2-1.99,3.94-3.91,5.96-5.92.63,3.11,1.14,6.48,1.43,10Z" style="fill:#fff; stroke-width:0px;"/><path d="M453.57,454.99c-.29,1.07-.55,2.05-.81,3.01-2.5.94-5.15-1.17-7.62.92v-6.68c1.93-.39,5.12.64,8.43,2.75Z" style="fill:#fff; stroke-width:0px;"/><path d="M410.74,586.63c2.35.47,4.41.89,6.69,1.35-.76,2.53-1.44,4.78-2.19,7.29-1.2-.31-2.25-.57-3.33-.85-.88-2.47-1.44-4.89-1.18-7.78Z" style="fill:#fff; stroke-width:0px;"/><path d="M763.02,448.21c-1.97,1.97-3.5,3.56-5.1,5.06-.27.25-.9.3-1.3.2-1.45-.35-2.88-.8-4.62-1.31.99-1.52,1.77-2.89,2.74-4.11.3-.38,1.12-.54,1.69-.5,1.98.13,3.95.38,6.59.66Z" style="fill:#fff; stroke-width:0px;"/><path d="M420.73,600.41c-1.7-.15-3.02-.27-4.59-.42.41-3.55.8-6.88,2.42-10.16.73.13,1.46.26,2.18.39v10.19Z" style="fill:#fff; stroke-width:0px;"/><path d="M410.4,534.94c.13,4.36.25,8.73.38,13.09-1.69-.53-3.21-1.01-4.99-1.57,1.3-3.81,2.64-7.74,3.99-11.68.21.05.42.1.63.15Z" style="fill:#fff; stroke-width:0px;"/><path d="M810.99,516.39c.23,3.31.45,6.62.71,10.47-2.4-1.69-4.22-3.27-6.24-4.99,1.72-1.97,3.32-3.8,4.92-5.63.2.05.4.1.61.15Z" style="fill:#fff; stroke-width:0px;"/><path d="M727.99,422.71c-1.48-.22-2.87-.43-4.46-.67v-4.86c1.82-.46,3.66-.93,5.85-1.49-.02,2.53-.78,4.65-1.39,7.02Z" style="fill:#fff; stroke-width:0px;"/><path d="M405.34,591.94c-.22-2.14-.41-4-.64-6.18,1.51.16,2.66.28,4.05.43.41,2.08.82,4.14,1.3,6.57-1.74-.31-3.1-.54-4.71-.83Z" style="fill:#fff; stroke-width:0px;"/><path d="M413.87,478.47v-12.55c2.72,4.22,2.85,8.4,0,12.55Z" style="fill:#fff; stroke-width:0px;"/><path d="M708.57,397.9c.72-1.45,1.42-2.86,2.13-4.29,3.02,2.34,3.07,4.06.24,7.79-.17-.13-.39-.23-.5-.4-.63-1-1.23-2.03-1.88-3.1Z" style="fill:#fff; stroke-width:0px;"/><path d="M643.58,380.69c.3,2.57.53,4.57.79,6.83-2.19-.69-3.51-2.29-5.63-3.47,1.65-1.14,3.01-2.09,4.83-3.36Z" style="fill:#fff; stroke-width:0px;"/><path d="M751.75,479.62c-.66-1.1-1.31-2.2-2.08-3.49,1.29-.52,2.34-.95,3.92-1.58-.51,1.99-.89,3.46-1.27,4.93-.19.05-.38.1-.57.14Z" style="fill:#fff; stroke-width:0px;"/></svg>